<mxfile host="app.diagrams.net" modified="2024-02-04T09:51:22.335Z" agent="Mozilla/5.0 (Windows NT 10.0; Win64; x64) AppleWebKit/537.36 (KHTML, like Gecko) Chrome/121.0.0.0 Safari/537.36" etag="Z3nksBdvO6HMDZwITD1w" version="23.1.1" type="github">
  <diagram name="第 1 页" id="v3vOc94UWBz46tZ29PWW">
    <mxGraphModel dx="1036" dy="522" grid="1" gridSize="10" guides="1" tooltips="1" connect="1" arrows="1" fold="1" page="1" pageScale="1" pageWidth="827" pageHeight="1169" math="0" shadow="0">
      <root>
        <mxCell id="0" />
        <mxCell id="1" parent="0" />
        <mxCell id="EB9Ou6GKdFQ_Ul-n4hss-12" style="edgeStyle=orthogonalEdgeStyle;rounded=0;orthogonalLoop=1;jettySize=auto;html=1;exitX=0.5;exitY=0;exitDx=0;exitDy=0;entryX=0.5;entryY=0;entryDx=0;entryDy=0;" edge="1" parent="1">
          <mxGeometry relative="1" as="geometry">
            <mxPoint x="365" y="380" as="targetPoint" />
            <mxPoint x="365" y="380" as="sourcePoint" />
          </mxGeometry>
        </mxCell>
        <mxCell id="EB9Ou6GKdFQ_Ul-n4hss-16" style="edgeStyle=orthogonalEdgeStyle;rounded=0;orthogonalLoop=1;jettySize=auto;html=1;" edge="1" parent="1">
          <mxGeometry relative="1" as="geometry">
            <mxPoint x="365" y="620" as="targetPoint" />
            <mxPoint x="365" y="570" as="sourcePoint" />
          </mxGeometry>
        </mxCell>
        <mxCell id="EB9Ou6GKdFQ_Ul-n4hss-7" value="" style="shape=image;verticalLabelPosition=bottom;labelBackgroundColor=default;verticalAlign=top;aspect=fixed;imageAspect=0;image=data:image/png,iVBORw0KGgoAAAANSUhEUgAAAMgAAADICAYAAACtWK6eAAAAAXNSR0IArs4c6QAAIABJREFUeF7sXQd4U2UXfm+S7r3LatLFkj1UBAWUDcqS5QAZAipThuwlCAoKOEAERAUnshQHQ/aQKRuBjqTM7r2y7v+fm97kJk0z2pQU5PD0KU2+/d1zv++s9zB4RI9W4NEKlLkCzKO1ebQCj1ag7BV4xCCPno5HK2BhBR4xSBV4POrWqBGklkgiWIaRQosIMGwIC1GgCPADtH4SF5cALw8Pb09Pd0+RiBF5uHvc9fJ0j2NZHL1w6erxuKSky1VgGg/lEB4xyH3e1piIiPqsSNSSZdGYAdMIYFsC8K3oMLy9PZMLCopOsaz2Mgtc1TLM34mJidcq2u5/vf4jBrkPT0CUVNqHAboCTEcA0vvQJd/FBZbFFkYr/i7+Vnzcfez3oenqEYNU0lbGSKXNAGYEC7zsiBOiosNkgRNg8b3IVbIhLi4up6Lt/VfqP2IQB+50ZGRkHUaLkQzYPgBk9jbt7eWJxg1q47G60WhYPxb0tynl5Obj3+sJuHo9ETcSknD7boq93SSzYGckKBRf2lvxv1j+EYM4YNejpdKnAMwHmA72Nufn641X+vdAp/atEC2raW91FBYV48q1BJw4cxHHTp7DuYu2ih3saRHDvH5DLj9nd6f/oQqPGKQCmx1TI6YmK1YvA4MB9jbj4+2FN4f1x6sDethb1WL5vLwCHD99AQePnsbeQydAf1siFsxHRari2Xfu3LFc0KGjfHAae8Qg5dyrGJlsOstiNgAP0ybCw8Nx7969Mlse2KcLxr4+CHR6VDb9vucIftj6J85euGqpq8taEdP3kdar9BI9YhA7n9AYmawny+IDALWFVYODg9GxYwd06NgBNWvWxJUrVzBxwttGrffs2g5jXh+EamHBdvZa8eIkr3z38+/45Y8DKFaqzDWYLWLQ+YZcfqLivT08LTxiEBv3MiYyshOr1S4CmBbCKo8/8Tj69++Hhg0b6j/+efPP+PnnLcjMzOQ+a964HmZPGYWYyFo29mYoxrJasBo1WK2m5EcNsCxYlgXA6v5f8hsMA/pHv7n/cz9iQCQGw4jAiMTIzivCD9t24esffjFz/WLztFpRt8SbiYftHuhDWuERg1jZWE7OkGg+B9jufFFXV1d0794NAwYOQEBAgL6FrKxsLFq4CBcuXOA+C/DzxaQxg9GrW3ubHh+OGdQqaDVKaDmm0DGDo0kkcUFaZj6mvbem+My5K24m7RczIuaFuMTE3Y7u90Fs7xGDWNi1qAjZeIbBewD0+ta+fftg0EuD4OPjo68plytw7vwFbP7pJ6SlpnKfP9OqGRbNHssxiSUiptCqiqBVFUOrMXv1qdTnauO2A6mrvtoarFSqjJ4FhmX6xSUl/lypnT8AjT9iEDObFF0zOgZizTcAWvFf16pVC1PfmYLatQ2ix+3bd3D+wkUcPXIUly5eQFFREVd8+oRheLmf/sAx+xjQtUnDMUYRiEmcSZevJylfn/qhqLhYKRGOgwXbI0Gh+M2ZY3N2348YxGQHoiNkI8FgjfBjkjGGjxiu/yg1LQ3nz13A5StXcffOHfxz9gz3nb+fD1Yvm8kZ+coikiU0ykJolFVLq3r+SjxGT1/Jmp4kLCt6OiEp4YizH1Rn9f+IQQQrHy2TrQSLcfxHJF+8M+0dNG3aRF/qwoVLOP73Ce60ICH8+FHdsyOtVQ1fLJ+DGtVCy9xLdXE+tMpCp58YZQ3w7KUbGDPzE7bY+LqVzbDap+KSkq446yF1Zr+PGKRk9aMjZNvBoCe/Gc2aNcO06dPgVyJD5OTk4PjxE/j32nX9fh3Yvw8F+fmca8jaFXPg62PerkHCtrooH1p1sTP32qa+9x39B1MWfmFa9p5Yo25x/dat2zY18hAVesQgAKKk0o0MmFf4fSVBfOSokfptpufir30HkJWVpf/s2r//Ij7uBhrVj8XalXPh5VnKXsiVJRlDXZRXZU8Nc8/y6o2/Yt13vxt9xQLnlBr1U7du3Sp8iJ5/q1P5zzNITIRsMctgGr9SE9+eiC5dOhsxx7btv0CrNQjShYWF2P/XXk7WWP/xPHh6uJtdaJI11EW5VjehKhaYMG8VDp+4aDQ0Bsy3cYpE/YukKo7b0WP6TzNIjEzWjmWxn1/UgQMHYOiwofo1Tk5Oxg8/ltZ0njl1Evm5OZpfvvtYHBoSaJ45ivNBMseDRCKJG0QSV4jELihUqtH71YmlvIVZsK8kKBTfPkjzqshY/7MMUrNmTQ83seQS3bBoAR9/vCXeXfiufi2VSiVWf7621Noq5Im4fOkSd3I80dxgPRcWpCtVVdNSWXtIXDz8IHIxthlevHIDg17XH658E7mMWlI/7nbcLWttPgzf/2cZJFoaORlgl9Imenl5YcNXG/QCOX228ZtvEZ+QAC3LwsfbG65ubuDljpdf7IbpEw1qXyPmKMzh7BsPEpljDn78a776GZ+s/d7kqsXujFMonn+Q5ljesf6HGUR2mtykaOHefPMN9OzVE3K5HL/t/A379h9AXq552cHN1VX11/YvXMjmYUp0pdLYeK1ixBKIXTxAbh/kL8VZ1DUqaIoLdC4m94noWuXi6afv7eTZS9i8Yw9S03V+ZLJa1fHXwb81mdm5YuGQGAZd4uTyXfdpmE7r5j/JIHWk0kg1mAR+1Ukov3XrFi5dsg4O8kr/7pg2flipDdOqlVAVGLRcZe0oI5JA7OrB/ZgjYg5VQc59YxKJuw83lpS0DAwbOxfypDs2PYwMmC1xisQXbSr8ABf6TzJItFT6BcC8bsu+kWNieLVwJN9LRnFxMae5+n7tEuOqLMsxhzVfKmIOeluTVy1Rbl4B54L+16GTuHItnvuserVQ9OzcBiMGEL5D5ZOrVyDoNOs7ZBKuxcnt6pBxkYTGxcXpnM8eUvpPMUisTNZEy7IbAaZBWftJcR3PPtserZ5qhWrh1RAQqPPWfffdhThyWGc137ttDcJDDTEdtgjlpleZ737+A99t+b3MN3a9WCk2fVxKQHb4Y+jmE4K/Dp/C+Onvl6NtdnK8QvFhOSo+MFX+MwwSLZU+y4L5hQG8zO1O8+bN0X9APzRpYnArEZb78cef8OV6Hc7BivemoEPbJ7n/k3VcVZBtccNFLu5w8TB49U6bvxI7dx+y+pB88f5ENG9kFJdltY69BVy8AvDdz3/i110H8Marz6NV8/r6Jo6dvoztu47iryP/mG2WAf6NU8jr2dvng1T+P8EgupMDZnfZw8MDo98YbWQc1Gg0IOt5QqKc+52Xl4e0tDQcOXSQ21vSYJEmi4i7WqmVFvfcxdOfsy8QLV6+Ht/+bGylps9dXSQIDQ5AWEgA7iZn4E5yGn79aiGqhwVV6vMkdvNCkiIJNcLL7ic1PRtffLsTW/8o7bPIakWPJ9xMOFWpg3Ri4/8JBomWSk+ZRgLSmjdo0AAzZk5HUJDu4UhJScXFS5cRH58AspYLiZwT9+3dw330+uC+GD/qJWhUhVAXWraU0/2e7vlEpC4ltSlP9PAPeKEdmjwWgwZ1SqMEkaxC3r9VhTZu2YMV67YaDYdhMCNOLl9cVcbo6HE89AwSLZO9BhYbTBeufft2nDMiUUFBAY7/fdKiFotOlV1/6N78I4f0xbjXB0GZn2lV2yRx94bY1ROHjp3Bm1Mo9kpHHZ5uhvHD+1T6CeHoB+bA8fOYtOBzfbMsi90JSXKDb46jO3Ryew8/g0hl5wE0Eq5znz59MGq0zhkxKekmDh85irS0dKtb8fvOX7ky40e/jGH9O9vkSkKnhwYMXntzNs5d0mFWEXO8P8MmJZrVMTmjwPJ1W7Bpy16+68J4hbw0wp0zBlYJfT7UDBIjlbZiwRwTrlvLli2xcJHOpeTGjTj8/odtti5yPdm7W1d2zpRR6NWhuU3XH1efYKze8DNWrf/xoWAOmkRRsRIdBk5lC4uKueeHAftUnEJxvBKeT6c3+VAzSLQ0ciHAzhSu8g8/fs8BLZCcsfO3P2zegPy8PBw8oPNr/HLlLDSuXcOmum6+oRgzdTEOHD2N+6W6tWlgFSw0d9nX2PnX31wrD7Mc8pAziLFw3qlzJ0ya9Dby8vKxbdsOZJTA8tjyrKSnpeHE37qX5N7NKxHgrdNKWSOxmyc69p+A1LRMzBz3Mvp0bWOtygPx/fEzVzBm1ie6sTL4JV4u1webPRATsHGQDzmDyIwwcxYtWogWLVtg/4FDuHDBONbB2nrdTErCxQvnERzoj13fkiXdNjge0kT1Gj4X3p7u2LhyqrVuHqjvm3d9gx/v1XiF3GBAeaBmYXmwDy2DRNWMasiItTqAKu4awGDbdp2KcuOm70upca3t6bWrVxEfH4dn2zTH0pkjrBU3+v7cv7eQmHQLvTvpjIvloWvxN1En2n7gufL0ZWud/qMXIF5xl14W6niFgo5U294atnZQBco9vAwilfZlwOiNDtWqV8NXX23gTg46Qeyls6dP4969uxg34kUM6fucXdXJFkIwPxUhMtSNfNmxQNe2juf1qR9h7QfGMKpUd+qiL/RWdlYskiYkJCTZ2uaDUu6hZZDoCNk4MFjJbwRBgy77cCm2bNmOW7ftxx44uH8f8vPzsW7pZDRtEH3f95cYpFPblpDVDLvvfc9e+jWeaFoHPToYn4Cffb0DX/7wJzceltV2SEhK+uu+D66SO3xoGSRGJpv3f9jaufz6tW3bFuMnjMO69V+Va0l5G8jxHR/D1dWlXG3YW4kLfy0Jg/1s3fccaMSU0f3tbabc5alvsas7Pl77I/YfPoWfPicwewOR68mij0uib1mMik+Sl4JDKXfnVaTiQ8kgMTExblqV+hwD1OXXmTRYgwYNwuafjV0lbNmHgoJ8HNi3D1ER1bB5zRxbqlS4DPlISdwMfpV79h/DjIWfcv1XCzUfB2+pUxKof1g1C7GRtqmnKUaEYkWIdu07ikmzP8IHM0fiuTZN9d2QEyNds4gYBu/HyeWV735c4ZW1r4GHjkFqV68erHFxJdmjrXApunXrhk5dOmP3br0F2OaVSk9Px4njx9Ct/eN4d6oB1MHmBuwsyAcxCaulpWei3QsjMOqV7uWSRYhBxg7thdf6W/cKIdAG8vLl6V5KOjr0HonWLRvg4wVv6T8noLnXp3ykYxBgdZxC/qadU63yxR8qBpFKpZESiHYDbIzpynfq1BGtn34GJ06ctHtTbt++hfP//IM3XuqOEa9WrqBMaQrI+m6OXho5DYQg/+Pq2Zz3rz1EDPJU8/r4ZOFYq9V4/zFhwbcmLcDBv89j0TvD0KUdZa4GEpLuot+oBTyDfBenkFPC0oeKHhoGiYyMbCTSsmTaNRvLSjJIj+d7lEuDlaSQ49LFi5g6vDcGvNipUh8AilF38TS8vYWdUfKbGQs/wZjXemLogC52jWPIhPdx6Zoccya+ip6dKKVi2UTWf1P6aetOLPhwA3dFo6saEbnBd3lFf6vKiVfIDcHtdo2u6hZ+KBgkOiKiNRiRRYBlMhC+9tprNvteCbdMnpiAK5cvY8GbA9D9+XaVu5v/z7fAhcGWhOWadjZywnwcO3UB894ejOc76sHnrY6JtGBrNv3GacHWfzgZ/hbSv7l6U/+6E4oDklAWIjUlBa9N/AB3ktMxYlA3vDH4eeTlF6Lti0L1L5sWr1CEWB3MA1TggWeQyMhIqUjLlgqm9mIY5AuSz9SrXw+TJ0/Glq3b7d6exIQEXL1yGfNe74vn+9idyNbu/nTaI0I8MXZnIVvKoWMn8da0D+HiIsGKeW/gyWa2GbCv3FDg1XG6WPohL3bCuOG9LYyLASMScd8L41E+WP0jfvzlAEQiEfb9tAw+Xh4QWNP59nLjFXLLSVHsXhHnVXigGSQqKsqP0WhLQYmEi8VYGRqIAXcNeAKUWHPturWYPXsubt26iazMTKjVaojFYnh7eyMgIBBh4eEICi59/79z+zbO/XMW4/t3xuChve7fbjEMRCIJBwnE5RApYfiZ73+JPw+c4mJJls97EzGy6jaNafriddh9SJeqYc2SCWjRuI7ZegQ5ejVOwX1XVKzCzTup+OdSHDKzDcFhPTu3xpwJr+DpPhNRUGiKA8b8Fa9IrPw3iU2zrlihB5pBoqUy2u1mwiWo7eqC78J1p/wzN++iQHCKxMREIy5Ohx5SFlHmqMcaNkRgoCEENTsrC0ePHMarnVphwsTBFVtxB9QWngb9erTFtLcG2tTq4ZMXMWHuKq5sk8ei8fmSCXCRGAv7v+45jnkfUe4gy8SHAz83YAqycvJKFWZZLE5Iks+w1k5V//6BZZAYqWw9CxgBVDVwdcVX4YYToMOte8gSgE7bsxmxtesgtiSblFqtwu4//8QTdSOxannlOxyOfGc57qVkICayBnc6xMpqINBfZ5OIU9zBDzv2I+l2Cvd3u1aN8eGc0TZPjdo+c0GXwmFIv04YN8z4qkUyxvOv6YRwcxQeEoAFk1/Tg0l0HDQVGVnmw45ZBm8nyOXLbR5cFSz4QDJItDRyGcBOEq5npIsEmwXJa64oVRh8zzJkEyW7oZTMBYXFelwqYZtSmQyPNdDh7x4+eACqoiIc/eXjSt1GenjpIbaVrMsTxi3t2HUMC1Zs1H+4fN4beOYJo4BL7D18Fqu+/gWK28n6cmQgbP9UEzzV4jH4+RgMmKTFIm1WDYkYt9Vm4ucZDI2Xy8vnvmDrIlRiuQeOQaKl0kkAs0y4JqFiMb6vFgK/EsGymGU55ohXlXYQpJTMg/p2xTNPNTdKW5CTm4e5S1ZjzwFdEBBPrVq35uQTEtJJWP9p9WxE23jnL8++0X1+yMQPkMB5yVqmoABfbPpkOkKD/K0VNfp+2uJ12FMii9BcPpozGjWrlVY+8ScNnWRCphA21n3ITN1p5yLBa76emJWeU2osLCvqmJCUYL+F1q5ZVU7hB4pBuHQFWnYPGEZ/cfYSMVgbGgySPXjakpePxRnGWFUeHm5YMO1NdO1gOWDp/Y83YOOPO/VtkXDfrEVLTs156uQJTH1jAIdEUplEzLHm253cm7ws6tK+Jbq2exxtHi8TA6/MuiR0vzF9Be6mZHBlmjeMxRdmvHVtmSNdx+haVtdVgiVBfjhQWIwVWaVkkjMqVtsxKSlJB/j7ANEDwyB16tTxURUV72GAJ4TruyIkEG1MEti8kZKOU0WGdGduri7Y+Pki1K9j3Qu3WKlC9wFjcC8ljeuGVJpdunVHUWEh9v21l/NFIp+k+0G5+YW4m5zOPYB03QkO8IP0/3aMWtVDynyj2zqu3/edxOylBrCXZ1s3wdJZo2ytri/XYeAUZGbnoYGrCxYG6bS7W/IKsTHXJEkpgy/i5XL7O7B7RI6t8MAwSJQ08jMGrJGvz1v+vhhqYvDK0Wrx7K17Rqv07vS30LvHs/rP/tx7CLv+Ooo9h06jdcuGaFg/Bm8O7afPj7Fr3zFMmm1A1Hy6bVuoVCr8fewYQoP88McmE2xex+7JfWuNt2vwHfbu0gazxtvnLdKq5zgolSo0c3PBnECD+WNZVi6OFJoA6j2AHr8PBINESaXDGDDrhU9OOw93LDOT3elMUTFGpRggfGKjpdj2jc6hjoiYY/JcfZiI/vMoaTX8vPZdiF3cQFChrboMQV6e7i0YGhaGzIwMjkmIjm5fCXc322LS79vTXo6OiotVGDvnU71Wi5og+NERL+lQI20h3lDYzsMNE/wNSUyTNRrMSc9BssYoBzwBiXWMT0rSGWMeAKryDBIZGdlYRHIHoJciQ8RirA4NgsyMw94PuXlYlmkQFOdPewN9nzfYrNq/MBwRNUKNHgp+nxrXj8aXH04GOQzO/vAb/LbnqNkt/HH1LMTIbHMbr+rPwI3E2xg351OkpBnsrSvnv2WTbEPqXVLzEvX28sAQX2N4rCOFxVhWSh5h98YrFPcHut4Bi1/lGSQ6QvYDGAwQznV+kD+6e5XGKsvVarAqKweb8wywoUd+/wp8spujJ/7B5cuXOVeLGUvWY9dByqFjTMMGdsFbQ3pi96HTmL7Y6NDiCpKqc9nsB+4qbfFRMZf6mYApggMt+x6SXNRnxDyu7aG+XujpVTqZ6YacfOzIN7a0syymJSTJywMn74BH3r4mqjSDxEilL7NgNgmn1N/HC1MDSm9cEatFmlqFDTkF2JGvY5DAAD8c2qlDZCfavf8o2jaPBQm/XV6exgGgEcIhIR0OfXspLlxNgJenO/7ctBjFSjXeoWAghkFIkB8ia1XjkM8fqy21b4UfkNJfb96Nj7/cZjTaM3+stjj60+evY9Q0nc1mor832noY5zikz1UU1pmRgytKI5V7JsNq28QlJV2p6stTZRmE87PSag+DhT5TZoREgi/Dg+FfYu/gF1fDsrhbgrC+Picfv5a8scJCg/DXNkMUKCXWpFwevDHumScacr5MPJFnKnmoCmMeqvoGOnJ8iz/9Hj//ZgxoYYlJtv95FO+u1L2/5gf6orGb+VDkC0oVJ48YEYNv4uXyIY4cf2W0VXUZJEL2HsNgunDSMwP90du79NXqnloJdYnP1be5Bforlo+3F47vMvgVUR4PyufBM4gpkBsfY21r5F1lbIiz2xw/9zMcOUnJf3VE+UkoT4k5EoI2fBzijwiJURpDoyrf5BZgq+DqS18yLNM/Lilxs7PnbKn/KskgJZi6FN+h87kG0NrDHSvNaK3SNSoUCvytdhUUYXW2IT85MQgxCpEyL51z3+YZxFyCmlfGLUavzq3xYvdnqvK+WRwbBV2JXb24bLtaOzPuklV8/NxViJMbkF/KSuQz84Mv8ed+XWqQ78ID4cmU/TgVsixmpOcg0di74YyGQRu5XF5l0wJXSQaJjpBtBwMjKMvPQ4PQwt34jpuj1SDHBG/qTLES72YYnOfWrpiLVi11vkbFOToHv8Sb9/DiyPncm9E0gxMxDxcp114XVvogksTDF2IXncBsT+Zdfq58cJX+7zIyXfFyW5BYhPWh5qMghet3rEiJDzKNHRtZFvMTkuQ6Sb8KUpVjkGiZrAtYGKFKD/TxwmQTwZxODTo9TClTq8XQZINHwxtD++GtEQO5k4NOEJ6eHTAZS2eONJvi7OS5f/F4Ez0gShXcNstDoph2UlUTURyJMlfnFWArCR0mKeaEXNvNUZte41FYrERTNxfMFRgJLfWzKjsfuwsEBwaLm4xS0jzuXtVMBlrlGCRKKt3MgNGnF6a30zfhIQgTG99vU9UqFFMQkRkalZKpN1BJa1XDbz98yqVJE6Zpfnv+arzc+7lKzwFo60PpqHKFSg38g6vpmUNTlMddtewhPiCL6pSFokKQowQ9SkTqXVLz2kKpGi2mpGUbhSFUZbVvlWIQzhmRhS7HQAkN8fXGWH/jCE6yd2RbgPL8LDsPewoMvljbN61AVK0wIwbhPVUrO0mmLQ+NI8ssX78D0ya+zikjSGNnbwq3qzeSQHIYT2XJH8LAqnH+3njWjIq3rHmVEthZ3HAr9Gx2JfVK6cgrRy5OOdqqUgwSLZV+AzCv8vNwYRguOpBiPXgibRWdHhoLOMmni5VYKJBDnmv7BFa8+zaU+TrvVZ6ISR4mBjl1/ho+/fpXfLtqPtRFlnMnmj4rJJeRLYQefJ4I2OGDma+bXSOhSnhpsB9i7YAhuqXWYEJaFtQCqGuWxYSEJHlpH6ByPNSOrFJlGCRGJnuSZWGUpYhUuqTaFVKmRo18GxJbDrqXAdKc8LTh0wVoHBOmi+0uoVt3U83GQThyge9nW7xw/fOauYiMCLep6/NX4rHtz6NGjEEVCRpo0uh+8DLxlOYbpVOGThuiH8MD4WZBg2VuIGZkkYu1kmTNDuBAxVC+bZq17YWqDINES6VktjZK3Lc+LBiNBU6BvLXclumtzcnHbwIXh/DQYGxZvxDukocOoV+/HDyDUHLQwS+W7e6kVmtw/OwV7NzzN/YeMY45IX80CsVt+6RxlKFwzcmY2q7fJLAsy53uy4Pth8P6V6nGtHST/PIsRscnydfYsr/3q0yVYJCaNWsGuoolNxhADzr7nKcH3g82Vh1aEsxNF+yuWoM3Uo0BTzq3b4X3pjofdKGyNveXvScx/8MNHNrJyJe7o9uzjyMnr4D7yc0twLWEWzh6+jLOXYpDdq7BVkTjebJZPXR79gl0f84o3MZoqL/9dYL7nhBVSJAn6u7ljtdtFNBN500qX1L9GqjqOTJWCQaJkkpfZkx8rpaHBOJpwfFO1yq6XtlDpqcI1e3U7nEsfscyvi55qX710y78dfQffPvJdIsga/aMp7LLUiRivxLNkq190QNPjEEMUhYRDNC2P4/go7m6jFJzP/waO/fqQpMn+XvjaTsEdGEfprIifcdqNS0Tbt4s7UVq64QcXK6KMEjkJgasPlIn2kWCHwUADDTnFLUKyjLUumWtCcWmj0/Nxj2NMZhAvRgpJo16EU0blILw5d6O767YxDkyEm376n1EhD04OGjL127Bpq1lh39T3EurZvXRqF4UGtaLRJjJKS1cS2KMjVv34uLVBHy6cKxeWO/00jtILwkp+DI0AIFivcOD3Y/nuNQsJBmBPbAL4xUK4zwLdrfquApOZxBz1yuKEqRoQZ4KtBpk2Hl68HVJYzI1LdsIH4v/rnH9KLRsUhcNastQrFJxQAbCOPAmDetg0+fvcfCbqnznhlNv3nmQ8zoO8NPB/1iidd/9Dnd3N3i4u5b80P/dOMHdEkPwbRJjbP3jMA6d0OVxHNq/M8aUAOZdupaIIRM+4D4PEYuw1gYLuqWxbsotwM9GPlrspXiFQu+gam2ulf290xnE3PVqQ1gwGgqEc3tkD3ML9k+xCvMzSqNtWFrcSGkNrF0xByTcE+SnqYq4sjfGtP1Df1/AghWbOCbp+HQzh6unE5PugeJC6Off+Jv67snjedns0RCXnBLkvUtevETPeLjhbUEUYXnW5BqFFZgI6yyrfT4hKcmAnFGehh1UpwowiPH1qombK9aFGcDfynIpsXf+hJO1KDMX+VrrWqygQH9898Uwd9gAAAAgAElEQVRiEG4WUXncNewdH5XX5wVhtdBq1NCoCqFVGQye77y3Vn/ChQT5c+ANtaqFQFYrHHR1IqxcwuwltEQXiZj7v4R+m/wtEYs5h01KXxCvuIPL1xW4cl0HNSokgvrZtn6+HiCCIIk6DJwKArYgstdAWNaakBMj7Y+B2HXxCoWRRrM86+mIOk5lEIr5gEabINRejff3xasCIAYKgiL1riMoRaPFp9l5uFBc2odL2P7cqaPRr6dQTcqiOMcyCF2Fx8cwcPMxYFNxrjGF2Xo8Xr59IZOUp0+CHF2/bDJn97AGMfrrhoWoHm6AYCVBfeHKkpRrAL4KCygVm1OeMW3LL8TXOUIUFDaNFYtjEhISTPTA5Wm9YnWcyyARET0YRvSrcApbqoVCWmKVddTpYbpEV5Vq7t5Lnr/maMmc8ejR2djdnXeVr9hyW67N5+WwJvN8v30fvt+xH7fv2eeESL3TSbP58znY8OOf+PSrHWYHRCByZEE3TTv98tjF+DdOZxys4yLB++Wwf5jrkBAZ3zJRyVeVa5ZTGSRGJlvCsniHXzTT6xUJ5iSgVyZdVKo4HKdzglOF9wAW9qsuzOWuPJVJXF4QsQTqwhzOwZCuQcvXbeFSHFDSHCGRKppUrXsPn+GuSLZSSKAf/vx2Cb7bvg8frjGOVaKsVeTASagmpqgt5MYyetoKfTeEotjLy2yuIluHYlRuclo24gSxIlUl56FTGSRaKiNpT5/uSKi9okvVPZUS2vuQm/7PgiJ8Lgiy6vLsU1j2rhH0Lxd4pCq0T9C390mRePhA7OLBKQRIMUAW74nzV+PY6cvYuHIa6pcRD//32avcm/1qXBJnBEwToLqYjoFA9I7t+Bh/7D+FWR/ojH21o2qi49PNOdzdujG1zA77zZkf48TZq/rvKP6DPK0dRWuy8/GH0A0eOBavkLd2VPvlbcdpDCKTyfzFLIx0p5+FBuGJkqCoyrpemVsokknmCLRc1cNDsHvL50ZFTeNJLC34T78eRP/njXKI2rQ/hMfl4uGrj3ykSgTHQ0xCqOoLpw7l1LXWSH7zHgdAcS/V2DmTrzfy5R7c6RQc5Ac6UTzL8Lfiy5t6+JqCxFkbjy3f7yssxscmEEEaBgFyubxU/hdb2nNUGacxSLRM1gss9DAavpS1qKbBwc5Wp0RHLESulsWrycYPE8WQUCyJkJR5GWC11q359LYd+VI3NHmstCHS4ngZBmKJGzTqYiPhnLLJ0vWGsLjeeXMgyH5zP4lSPVPKZ55mBfqghYOB80iBMjLFxNbEoHe8XG5/SjAHLo7TGCQmQracZTCBn4sQKZEUsQTEQGgl94veTM3CHYFFd9r4YXilf3ej7smFnPL1WaN13//BGdp+XjPH6tvZWlv89xt+2oVPN2znZIMh/TqiT9enreJW2dq2pXLCVM9UjtIcfBZiH5q8reMYnZJl5PXAsFgRlyQ3jxhha6MVLOc0BomSyv4WAlELEUvs8dqt4Pz11b/OLcA2gUW39RNNsOYjY48HEpxJgLZGhJreY8hMPNu6KZbOchzQ9cR5q/TWbboa9enWhnMZsTVPobVxm/u+z+vzoLhlyBOyIMgXjQRI+uVps6w6dMWiqxZPLHAiQSF/0pF92NuW0xgkWhqZCrB6i+AP1UIQ46LDVcrSqJFXydor04Uil5QxJqpGISIKlbdHDiF7AdkNJo/qh0G9DMDZ9m6QsDzJFpTbg+BChURgdw3qRMLP14sz6vmX/Nb97c1ZwQuLikFYvEVKJWfoo//T79ct4PCagsk95e6KqQHWXV3KO0cKTyAHUwMxafGKRKdmzXUKg5hLvnmsVjW4lgTdJJOR7D5er/gNWZCRg7MCde+Mt0fgpb5djfabx9ay9hAQMsoLw2ZzyOdfr5jKPcCOoPyCIjzTt+K3DrK6U04Q0mCZo+TUTPQaMZcbP09rQgMQ5kDNlWm/5lyCWLHI35kGQ6cwSHRERHMwIr1LczWJGL9WD+PWi0JqSf5wBl1WqjBTgABoigxPYyJbCNlEbKEvf/gTBK5GGaC+XzXToW7zwlyDtozFtAwPuVpWXVO1bhdPd4z2sw2YoTzjoTqEBE+AG0bEals4Ew3eKQwSExHZn2XYH/mFINUuqXiJ7qd619xGfpSVh0OCe/AP695Hg3oGbRTnl0XwQTaecIPHL+EMec0axmJtObM4lfXAkSr34r+JnH2CAqGsEcV80DjInkIu72WREFKUL7MhLAABJpCv1vorz/d976ZDaBpmWGZAXFLiT+VpyxF1nMMgMtl0lsV7/AT6eXvhnRIkcUIrIdQSZ1GeluVkET477gtd2+G9WWONhmOrNosqUdzEq+OXgK4shNY4fcygSpsagXLn5hVw+ML028fbE95eHtxvulLZQvHyO9x4eYdEqlNTIsanlaS5Mh3T2NQs3BRoExkGM+LkcgPMii2TcGAZpzBIlDRyHQN2OD+PSQF+GFSSObU8gVEOXA+uqZ/yCvGdIIXYvh1rERqsjwa2Oz6EvGYphoK8YSkUdtQrPRw9ZIe0Rwz2ytjFIDALU1oXGoDgSpQ/+P4WZ+bihCAMlwWzPkGROMIhEyxHI05hkGipjLCv9JkwV4YEobWHG+dUclvg3l2O+Tikimk8+5CBz2PK2NeM2ia3E3twbw8cP49JC3TWeTL2lcfS7pDJWWjkzRkrceKff82WoFNkUZCvPpNwZY3FVN3+/+fkQLxC3r6y+rPWrrMY5DwAPWzGl2HBaOTmyiElUnCUs8nUsk6uGHu3rYGvjyHFmClSoy1jpki/1Rt1zstvDH4BIwYZa8hsaaOyylBCT0rsaYmISRYH+cFHVHmPjWkCUGfbQipvphZWOlomSwILvVccgcNRGmdriImV9XCYtktOc+Q8J6QBvTtj9mRjo5+tKl9hO8LEmX26tgGlYHA2zV/+DX7ZbQRJBpGLK7Sq0tpEwgugbLYeduJg2TpHyu1COV4EdCFeIW9sa31Hl3MKg0RJZXkMoNcZ8jEgGRoVCgSpDBw9WWvtEdAcxUgL8bSEdb5fuwQN68fqPyK/LFV+lhEYnbU+6HshKghplRZOGYqwEOvo6La0bU8ZQlOkk4MHgOPrkst9rWd6QZWfjbsnKT2kMVEekNmBvlxMuqPJNH0FWNyIT5LXdnQ/trZ33xkkJibGjVWpjdCUd9YIQ7hYzNk/+EQ4tk7AUeXISPVFTj5I/iiL6sTIsOVrQ3poKke+WfbCfFI94ZWGrnCzJ7yMTs+0cNR0rLazZtNOfPHtb6XKufr4o9oTneHmp3NyyLuTgDvHjcD2uc8py9e8QB+ziVStdm6hwIHCYqwQevUyuBkvl0dUpM2K1L3vDCKTycLFLO4KB723Zjgn/DlDQCfj4Dc5BbhmnNilzDXt0ekZLJk73uh7PsDJ3o2gkFchFi7lQCRUxNjIysugS/2RM6U5TZVnSE1Uf6obKAGPkApSbuL2sd+5GBUhuTMM3vLzKjculrn1Kp1DxLnuJvedQWIiIuqzjMjIqnW4VjWIoAOlvl+UoFJjfU4BiEHKIhcvX6jySzsnUlppSi/NE/lokTxiiyu8aV9bfj+M9z75zuhjSt7z5uAXUCPcAF5RkXUh95Ttu47i261/ITnNPHyRi18wQps/C68A865Phen3cPvor2blkh5e7hhRTnRF03mZgsmxQH6CQm7QjlRkIcpR974zSHRERGswIkqvpqeTEdU5QGpLKQ3KMTezVbK1WmzMLcBeQXoE04LugeEIqtscXtVkyJZfRfKZfaXaalQ/FgtnjkGUTOfLxMkjBTnlYhKyk7y/6gdQ1lghURIfMi4+16ZpuaZP1vW/Dp/F7kNnOGdFSyT28IamMA8ST1/4SesgqP7jpYoXZ6Xi1uFfoFGWzjfSwdMNY/wq/hybSfipjVfIy05+WK6Vsb2SMxjEyA+Lhnq8VjWOQSrbg3dnfhFnACwow03EK1yKwDrN4BFc3WgFM/49jbTLJ8yuau8ez6Jju1Zo3rgePN1dbGISsnSTp++x01eg0Wg4MLia1YKRmpGN/cfOcwZFIVG+csrP/kTTutyPuQjAm3dScS3+Ji5eS8TFq4kg1PaKkF9kA4Q1Kx0VqczNxK1D26EuEqKQ6Hqq7SLBzECfCtlKzDgsFscr5KUTsFdkcnbUve8MUkcqjVSDSRCOcX/NcKhYTaVpsChxJMHt3yhDzvCuEc2dGG7+ZXtWp54/gsw4Mt+UTfVqR6JpwzpoXFeKOlE1ONwqU6LYcUqSmZbhdEQbq49J2BNd4FczulQ5unYSk6gKSjttUkDVexUwKJIVnazpAsqOV8grJ0LL6goA951BzLm6/1lDl7ejrJRqNszDbBHyq/ohrwB0cpgj94BQhDZ5GnSlsoVuH/kV+ck62BujN3xwMNLSSkPwEEpIaKAfQkMCEBzoj+BAX+w/dg4UUHW/KcRFgtQyXhCPu7uhrqsL8rRabM0znAxuITXgF9sUvqE1ITJJgUcnCK1HcXbpeUslYg4SiIR4e+lwYTE+NI5NvxevkBvHPtvbaAXK2z+DCnTGV42WykiXqlei76geBjE0DlXx7sgvwk95BWaRFCXuXghu2Aq+EXXsmg0ZzpIObIEyx/gB/+bbTYiQSvHrjh04c/oMzp8/h8wM61i+ZGwjA2mOVmuaHtmucZkWjvbyQFRIAGpH1kD9RrUh/v+Vct7qn3BPwCD08L7i642XfLxAeAA87SkoxPQSQZ7sIX6NnoZIJIZPaHW4eRoHS2nVKtw9uRv5d+WlxkuI74T8bi+RbEjgfjyxQGKCQn5/g/AFg3YSgxhHExKSuwc0cAR+YrJGgyWZeWU+cEH1WnJyBm2+PUQnXFFuFvLT7yHr0nFoBYLq8z1fwPKVxtnD8vLykJqairTUNKSkJCMlJQVrVq3WnzTtPd2xVOAASeBphwuL8HdRMU5R9J8Fd/oZvdqjILcAmdm5EIlE8Pf3QXBoIKpLq6PRU00AwQO/+aNvsESQVo3m3N/HCyN8fcpEZR94NxVxKp12zzumCSQ+OiOmp38wvAN1cKxCIvmM5DRTolOEAObsod8LivCFsRfDlXiF/DF72nBkWecwSITsOhjoTdKUxdaXqTh70P11ZVaeWSHcM6QGwlt2gMTDvreahqBPc7NQmJPJ4eUScaG36fdQdCdenySzXft2mDR5EmSRUfDw9DS7Ry0aNUZWjk5tvLtGuMW0AUcLi7AjvwD7jLGi9O32rBeFUeNfRpjUWKGgf/MqVZg99j38kXRPXydELMaCIH+0NIEOIidRiuBUESYwgPUFSmwqOQHdq0XCPVymb8PVwxu+odUhMnnBZFw7i7RLxu4qPb08MNTX/FqU9RBvzy/EV0YwpDgTr5DfPwuqycCcwiCmgA1rwoIQVkGvBcJ2JYxXcxT82BMIrGvfGquKC/WMUdZm0ilSePMaVIIrV4/ne6Dvi31Rp05deHl7w83dHRKJBNevXUe3zp25pkxPD0tvvAyNFpty8/Bjbr7ZU+XxkAA82ag2atczhPSqilT45NudSBAEfr3s441R/j7wFMgFOVo1irVsKdnvD8Yda+7o4t5dA8LgKTMOriJ5xCe4Oty8jK9ciX9uNLIbPe/ljuF22kdMQw0A5mi8IrGNI08Fe9pyCoNES2VbAfTmBzo30B9N3exXdStZlkv3/Et+EehqZUounj6c24R7oC6c1xYqLshFUU4migtsz0isyk4Dk3ELeVkGuaNFi+bo1r07ateORVhYGHbv3oOlHyzlhjAxwBf0wHKnEbmrsGyprL0SMBALHuZMrRZfZOVic56xE6W1OVE486KgAM5bWkiWMnalil0x8k4yWK0WEu8AeMc2MduNV0AwvAIMVy7Tq1Zfbw+86mPfCULyh4mNalu8Qt7H2jwr63snMYj0A4CZwk+KcqH39rKOGChchP2FxZxNgxLTmyOfWrEIa9qO80q1hQpzM1GYnQG10rJBzVJb4rwMqNOSkJ1pLKCHhISAfq5cucJVfy84AJ08PUBv8BwzjM33QQziAgbuIhG8RboXyFWlCuuzc3HAxFZS1rjCJWLsLIn3F5ax1nffzCJoivJBBkSfui3LnLarpzd8g6tDJJEg498zSLusS81GNN7fG+3tTM82PT0bBC5uIHZpvEIx1ZY9rIwyzmEQmWwUWOixPQk0boK/bYAA5HE7Nz0H18tQWZIfUWiTZ+ArrWt1vUimINmiICuNy9jqKFKm3YIq5SZUxebVy5+GBuFJdzfcsjM4rLqLK0QlmvkUjQZ7CwqxPa8A5DbTwt2Ni8p8zMUFl5VFWJ6VB4IyIiIZr74JlpU1Bnk1T4Pc3CyI3DzgW98yNBXJIz4h1ZB97SyyEi7pl5HCdCmGxB4anJyBHGEOFwaj4+XOy3zrFAaJiojqwDBavR91lIsEH9kIpf9eZi5OGmVGNSy/e0AIwh/vBFdvy3YltbIIBdkZnIxRWUTXE2XabRSn3DRKgkP9rQkNQvNyMEioxAWujLGw9l5GFme7+CgkEM94uHPeCIQrRnkZCamQiITzVI0GYf9PnPO8tyd6ennCS8RaPL3GFjG4mZlmE4Pwa1gov4LiTB3IHDmffh1mnws/MQYxiJBYVtQxISmh7KSLlbWBJe06hUFMrekSBvhZkKilrDnHq9SYlGbeAh1QuylCGuqB4s02oSzIQ35WGlRm3CQqc51VmSkoSrkJTYFOg7UqNAhknLPnBJEwDMIluuviDZUKp4qU2J6Xz50eRPOD/NHdyxNCTDFKg03u+9UlYkwN8EMzdze9kG4t9maeUoRz6akQu3vCp17ZqaGF65Z9/pBeq9fN0x0j7YQJoqsVXbGEJAEbdU2hSKzM/bHUtlMYhAZkaiz8PNSfiwmxRKWCabi0ZZ6c+tYz1DxsP7VXmJOB/Kx0kGHLmVRw4TCUGjX4FNf2MIgbIwLDiLEmOwdnipRIUhu7npNtg3CrhDLNyJQs0FWso6cHFgcHcFmCSbFRpNVazdo1S+2CS6n3IPH2g3dsM6vLpikqQO5Vg78axa8/ZidEqamREIBTHRVp0s5jEBNbyPQAHzzhblmgNnVDIAE8svOrELuV9mUj+aIgKx0F2elWN/d+FSi8dorTjs0L8kcPL08u/sUeyYdOET+RBB4iEWd9/yO/UG9cJEfBDwTXVIpveafktH3W0x3TA3w5h1BbaZLKBfFp98yqec21QadkvlwXxUCW+W/svF5RvS9z8jmNpJ6cHE3oXAYxUfV293LH61Z05qZoIzSBiGf7gXyqTCkn5RaK8qwDTdv6wDiiXOHN6yhOu41Rfj54/f8/9jIIPwYxGBCzEMWrVByOF8G2jvXzgrdIxAV/7cwvBPmiEZESZGagfQwyspBBSlYaTA2FZa1D4a3rKE7V2U46ebrjTTuvV1SPst1S1lsBOVXF61QGiZLJ3mBYrOIXo5ZEjE9sACcbnJzJvT158pXVQ3jz0uDQpJ3KTTMKXHTEM16hNpSZySiQX0E3Lw8sCArAHVVxhd1ryFN5YhlyGT9YAloY4++LSBL2bKQ+aXmcckHoamKpau7Vk5xamGhuoC+auhlHJVrrlq5+/e+ZCOgM3kyQy1dbq1uZ39u+Yg4ehbnIwtUh/iDDliWieGWKW+aJEYsR1W0oxK7GdhSNqhjpNysWE+HgKXPReDmXjiLa1QU/hofgrkpZykBob59f+QRg+/U4o2pubm5o3KQxatWogYMHDyEtXXfNpFOmrqsEkRIJCHiBXNN9RQzknn4IAQtfjRo+WjX+0DDYmJwMRiSGX2PjZKbmxsdqVMi+oIuB8xIx+DbMALJn63wuKVWYJcBF5t7erPaxuKQknfHISeQ0BqH5RktlpJ3QO/pQRBpFplkiM/ECCGnUGgFmrL2piVcdat9wxB6RIEsC7e81wqBhNeVOEkRBXx8xrjh9V+dr1br1UxwSe/PmzTgLvpvAcr5161Zs/GYTCgpKBzlZmhOF4XpFNbQ6bVVWKvITdfaP5zzdMLYckYVb8wrxjQDNEoA8XiF3DCS+1RmUXcCpDGIKQUpWV7K+WqOB9zJQJDDsuXj7IbLzK6WqZd1VQFlon2uGtb4r+n3hrRsoTr2FiQF+eM7DpVwu/mQAfDcjV+9eQ/5fY8eOsTi0lOQUrPz4Y5w+Vdrrltz/GYkE6oI8vZqWe4NLXOD7WCvuJLFE/JyozJxAX1AOQ3vp/cxcHK9CkKP8+J3KIDFS6XAWzDp+MKFiEb4ItW5cMs1ERPVrPtML5LErpPzMVNBPVSJ1Tgby4s9zcDmUyszePCh/l3gsk0cBTys/XoG6dY09B7x9feHi4oKiwkIUCk6O/Px8fPLJp9i/bz8ej62LZh16oKCuzteqIC8PVw7/heuH/oS6JFrQNTAcntJ6Fpcw57LO/b+81ytqfHhKJtIFbkMM2BFxCsV6Z++dcxnEDMLJjAAfPG5F3WualZYW0S+yPsKaGUO40ulBp0hVIrKw51w8wr2plwf7I9LFdleMDTkF2GHGY7lGjRpY/fkqkOxB5OPnh9CwcOTm5ODSpUto3KQJcrIykZ+nc8BctWo1dmzfgV4Dh8G3VWkFR056Ovasfh/5qXe48pY0WSSYk4BO9KyHG8bZcAMw3Q/yjCAPCSFVBfmDxuNUBqEBREtlFESgd/bp6OmGt2y4w45IyUSa4I0jcnFDzAvGIOD0MKbKzYMxO5Np8hMugjyAX/DywDAb4iVIvU1hqHElVnNvsRhPNHsCf506pp9G9+7dMG78OO7vCFkkXFxd0adnT5w+dQpvvPkmps+aBWVxMTIzMjBv7lzs2b0HvUdMgE9D82EAGpUSm+e/DWVuFnfV8mto3uO8KFmBojs6iIHyZr/9LDuP88rmiWFxKC5Jbn8e7UrY1CrAINKZ/7/tLuTnRj48dPXwtgKQTEE1FFwjpOqtusG7urFcl34zDrTZVYmU6XdRkPSvVX8lEsQ35xbit4IizgJO1CJChtiRU+Di44fkzxdj11UDxNiHHy1DgwYNUDNCysWhNKhbFzk5OXi2Qwd89c03+iUYMXgIDhw6hL5vz4eXtDQoA1/w723f4/qB3+AZUReuQebDwnOvn4EmP4dzYfku3H7tFdlq3krNAsEx8cSymJCQJDcO0XTSBjqdQWJlsiZaFoYk3AB3TNNxbYnobTrZRP9PLu7VHu9kVC075RaKq5jBUKgWXR8WhCCB/yEpHwjMjoAmLivVesYg63mPLr3g0dkQGuGen4Pdi6ZAnq9TRNSsWRPrv1yHoOAQ+AcG4uiRIzh54gR69+0LmcwQFTioV2+cOncOLy74BJ5+5mW+4oJ8bJ4zFoyrO3xqNze7Fbzamr5s5+GGCeW4XlFWW5IpBdyRB7Wkfvyd+JtO4gmjbp3OIDSaaKmMkNn0AkQrd1e8Y0M21VJ5tcViRPcYbgSdSe4meRmGNMZVYdFpDPnxF6DKSUcrdzd09XLDsUKdTUR41eDHWs3dHU+PngL3yNIgE+Kzx7Dha729FePGjcWL/fuhes2yfdN6duiAy3HxGLxyU5nL8dtn7yP9+kX41GkBsQlYA1+JvALIO4BoZoAPWlqRHc11Zqq9Aouv45PkxslYnLhpVYRBpJMAZhm/DiS2fmaD8+LmvEJ8a6w7R/VWXeFd3QCCUdmCenFKElw8fSGy4mJvusckg5AsYo1aREaj/oT5Foslr1uGXRfPcWWCgoLw3fffopZUBtcSod208nNPPonklFT0X264dgnLJF44i8PrP4JbcA141CobWD3vxlmo87K5VAjfl+N6RS75b6VkGeck1DI9424m/mJtXe7X91WCQWQyWV0xi6vCSb/s44l+3pbz6pFakNSDQvKPboDQJgb5TqvVIE1+rVLWU52Xhbwb/8CLgA1qxoIAHuwh/hQpq04baSSi3n7XapOSnExsmT8B2SUBUmQTeWXwqwgKKe2jRo092agxmOJidP3AvBb1hznjudhyCpQqC/2F1Lqk3iVq6+GGieW4XpV6wbG4GJ8k1ydWsjrx+1CgSjAIzTNGKv2VBaNP3kcuJyuC/eBmBXxsfkYOCK6SJwqWknU2TkqTnnTD7ofXlrXnNTgeIdUR1rKT3SplUvUW3U2EpiAXIld3SHwDoUy9DXV+NmJ9/dDq3c9sGQZXJmPjp9h5WhfuSrLIV19vQE2pDGKxGGvXrAGpgrs//zz3fcPatVHN3RNtzLR/bNv3iLMimFMbxclJKLyjc+WxxRPbdCIEazQhLdso3QTLYn5CknyezZO+DwWrDINERkS8KGJEm4VzHuXnha6elmFZDxYWc+GlQorqNsQI3ic7+RaKzaC0V3R9ee9cikWp+fQLoLj23NTyO0gKr13D3poGde0GNg9RrFJi+/RRyCzBs1r03iJ06tIZ27dtx9zZs7l2/jpwALG1ayNGFolGYeFoMkN/q+W+z83KxI5FUzi1Lskeloh3maEX2MawAM7Pyx4yk8UrS8OgqVwuL41CZ0/DDi5r36wc3Llpc9FS6WGA0SvcY10kWGolFJfUn0OSMyG0LIc1fxZ+MoP1l6II8zNSHD56UtWSyta7RhSqP6nLN1he6z1phHL/PQlWrUKnyGiEW5E7zE0m68d1+OXYAe4rQlX5YNlSKJJuYvDLL3PIKnv374eWZdGsUWM8FRmNGJM+dn62FBnXz1sUzKltQoHP/fcU1095ERSnpGUbYSUzLFbEJcknOnyTKthglWKQGKl0BAtmrXBOBF9Jm2CJCJh6twBgzVTdS6G2WfdKY+pWcO3A+yD5RT3GIahUhEF44yG18fqwMShubBkooayx/zZ5KNJLTpHPP1+Nx1s9ifyCQgQGBnKW9hvXr6Nrp87o2KgZqg1/W9/M9bOncGLjp3AhHCwrkKzC2I9pAT540k7tlRn8XYgYNL0hl+s0DVWIqhSDtAMkN6XSfwBGf7eguAKKL7BEhHAyVWATEbt5IrrHUH0Vii5MUxjn3nDEHhTdU6DobgIIzrrtiU4AAB1TSURBVJTPp1GeE0QYruomFqPf8HEQPWbe9mBt3GkbVuD3czqHxA4dO2DmrJmc4ZApuQLt27oVI9+ehB6deyKwWz+unFqlws+LZ4C8cjnB3CTDlLBPkptyLh3jsk2V93plKjeCxVfxSXLDhlmb5H38vkoxCM07WiqdDDA6hLUSmuzvjTZWThEeoICvE9l1MAg4jqe0pBsOj0lXZyYjT36Fgxnyj9a5hZeHQXgHRuGcn6wVgQa9X4Uy2rKjoOmz4nL3FjZ+MB3KkmjCnzb/hMjoKAQEBnFFv3l3ARas34A+IybCu6GOCQ9v+R6Jh37jVLqk2rVEyvQ7KEjSaQVbu7tiig32KmF7pXIQkr8Tg/ZxcrnubljFqMoxSO3q1YM1Li50iuhSN5GGy0WCxUG+cLEgCJpCj5JFna5aPGXfuwlCTXQkafOzkXP9LIfe6FMzptwMInwrC8dHgm/76FhE9XoZ+bXKdgkxnZP8w1k4lKSTdYcNG4qXXn4JEZFRHND1kqGvYd3+gxi8dD3g6oZ7N5Ow95OFoMAza4I5tUeyB8kgRFMDfPCUHdcrcieZkZ4DAuoW0PZ4hVyPsunI/XFEW1WOQWhS0dLIKQD7gXCC1uwi/yrVmCaAjAmIaYyQxgYHu/K82a0tsLYoHzlXT6JmmxfgGaazXJe3H/KKLUi8rA9bFfbtI2LQOro2pD0GoFBmPSOy27njWLtBpyIODQ3Fxk3fwC8gAMEhoRjTsQP+kSvQedlX3Pdbly1A3s3r8KnTHGJPy1dZUkfnXtNd34h5SXtlTQ0vnMe6nPxSuVqcjXtlbY+rJINwp4ZMdpBloY/3pFiDJUF+oNj1sohimnmnPvegcES066svSqcHnSKOJFalRPalo6jVtrc+bVt5GYTGZQlsjn8on4iQIabHAGisqIDPzR+HC//33CUi1PlOnTpCFh2DTo0awcfFDc3mf4Kz+3fj0vZvOEdEcki0RgWKq1Bm6CIY6eSgE8QaEQgD+ZbJ1WocKjRxGmWwMl4un2CtDWd+X2UZJEoq7caAMUrkbS3ewBTXtXbft/RrSx695NnrSGLVamRfPIyaz/QEpVCuyAkiHBdducgQR75OpPY1Ry2q10C9ji+Aadba7Pfs7z9h4y6dx0bNmjWw/sv1XCKcjh06ok39xgjuPxy/vj+DC3SyJphzzCuIO6e/SfYgGcSU5Co1zivVOF+sxJX/n+rCyE+TsuS++2OxRj3m1q1b9z/llo0PQpVlEBp/dIRsNRiMFs7FklpxbU4+fhPgKplCAqUkODb+nzQ52RcOc0ZCHriuIieI6Z5xJ0r6HRTdk5fJKHX9A9CozXNw79jLqLprUQF2zhmLe8W6OIu3J01EUGAQZs6cha79XsPRE0eRk3QDHjVrg1KtWSMKEya1NhFdrwj3ik+xRigz5GT5Z0FRmWDiFtpXiMB2vaFQGLkaWRvP/fq+SjOITCaTiVnmMMDqBXYCQ54f6IsgcemEIqau0+EtnjMCsXZ0bAi96Qlus7IYhH8IiBHJKbI45ZZRzLjwIanh4YGmTVoisENPIFiX7iH7q5XY8Y/OoBccHIRnn3sOv27ejIbte+DkX79aRW7X96/VckZMbbEu/ob3tqbTYnt+kRHKTDkf3LtilWuj63eul054WM4GHVWtSjMId4pII8cA7CfCCZcF7qBQazA+1QBIHVi7GZeLkCcyFpLR0FHEXzsqm0H0D6payWH8KtPucHaIsqh+UDCkzZ9C9XqN8N0n76FQEIxU08cHd/ILQE6c3rWbQeLlZ3U5eJcavmAPL3cOOf6cwAeurEbIOPnqkMEYM24cl0jo0sVL+PTjj3Hk8GHTKr/HK+TdrQ7mPheo8gyiYxLZdwAGCddmpK8XunmV9tMSCuqU97xGa73/I3LT73E5QMpD9ECaerbSGzXnyt+VfoKYjpdOLoL6VGYkQ51nOVmoh0SCQhMcX2rPFjAGkk8InZ6uV/YSac8GvfwyXh38KvwDSgdlbd+6DbNmzEBRkQFqtCraQx4IBomKiopgNFy6BL2Ok2IQFgT5gvy1hETo74QCT+Ti5YvILq/qvybmICaxl4g5yLXbvVqU0X2dUq/lx59HtSe7wKeGzk7hSBnEHGNAq+W0XWC1XOpsbVEBB/lpjVGEbRGMj1dME5CammwavF1DWEarLIS2HMmEWrdpjQEDB6FbD+uHwc5ff8WEsbo4eh2xG+MVisH27k9lln8gGER3ikh7AwylbtNTIzcXLDBxQ1mamYujAnyl2F6j9G/+ivhkkXsFQXHSlcQjoi6XFoDACsjlndIuUPqF8jAIvaWpXVIZa9VKo9+kwaLvhBl1HfEwEIPQKeQoate+PQa99BJaP90G7u6Wva9N+xzUvz9OndTJSQCK3Ao8Q66kXnHcPbiCk3xgGETHJJELAXamcM6mwTqbcgvwc54BzEH6XH+4+YdwVSqi6tUU5iPv+hn9gyXxCeTewPQAewRX52whQgahU4euYBwDlDCBnhFUSrDEDBbkiArua6VXJ9mi/8ABGDZ8OGpFRJS7v7179mD06yMN9Z2cUcp0Ig8Ug+iYRPYHgC7CiQihgkjdSDAyPAmvP/RZRVS9+YmXocoy7zZPlntVQS6KczM50LUH+eG39rR37dYV8959lwvvLYuSFArs+nMX7t69A6lUBjplpDKp2eJNGjQE5ZUnYoETCQp5+VyZrQ28HN8/cAwSFRXVkNFofhf6atG8+fQJpiDIwusPlSOcLO4Obwdx15yiAi6G3JFXE+EQvL28EODvj8CgIC59tIeXJ9zd3OHh4QF3+nF34/7Pe+VSXcLazcrMQmZWJlJTUhAfFw9CTqwodejYEXXr1eV8t3JzcrHhyy/1TT7X4TnMmDmDi3mn74VEAvf3332HbVu24srly+jUuTPenjwJMbEGnzhzYxvzxpv48w967+moqoDGcWOp6GI6o360TNYLLLaZ9k05KZq6ueJ1QZw6edmSty1P9oTfkhs65UGn2POKUnR0NKKio7mHJSoqChHSCE67ExAQwMVqOIpSkpM5VerZM6dxMykJZ8/+g7t3dVGOHkHhIM2ee0AYUPJwa4oLcPfEbqPud/21FzRenia//TZI60TUqtWTmDd/nh57iz6jBKjfbtyITz/+BGlpadyVa96C+WjbThcjY42IoaZMmiQoxsyOVyTqsdKs1a/M7x9IBqEFiZYaI6Hwi/RukC9mC2D0vatFovpT3fRrmHEr3nKqZ4bh3tL0k594BcXpOvhNW4kYoHad2qhduw7q1avHuZoTQ9xPys7KQlqKDuro++9/wFcbdI6JQqdK4XjidnxhFAqw9sv1aP+sAZKUD7KiOj4+Pvh5y2aEVasObx+dL9bCBQvw1ZcbOCzgt8aOxcjRo+Dqalv6baqflZmJFk0Nad4YFifjkuS2JUas5IV9YBmE1iUmQracZVDK2Y0cG/NL4iHc/IIh7TBAv4yZd+RWk3iSlscnOByMRg2N0qCnpxwkhIQudtOhrRRlJCP5n4MozkrF15s2gVScVYEIXjQjTQfavfPXnRxYNRHZhOgEMaVbh7ajoCQ7FH03Z948DH5tiFGx57t1x9WSPO/r1q9F46ZNuRiTw4cOYe+evdzL4Jl2bVG9evVyLUHn5zogPt6Qz0XDoJpcLrdfJ1+u3suu9EAzCE0rWib7ESz6lzVFypse09OgJbHHmu7h4w+voDDOya8sSrt4HBnXz2Lrjh1o1LhqINZkpKchsyRpzqGDh7Bo0Xvc8E0xw/g5pV44iswbhmjXocOGYeYcHdADT6s/+wwfLtWBPEydOgW9+vbhALKFpFKpcOjAQfz777/QlGjoyHoulcm462Xt2FiIJcZ2K77+2+PG4ZdfftU3x4IdnqBQGIQfBz/4tjb3wDMITTRGJtvNsuhY1qSJQYhRiHJSbqMoz3wqaXP1JQTH4+YOiYsrxC5uELu4cv+nMDiirIRLSPnnID5dvQpduuqAG5xNQgY5e/Yspk+bwQ1JGNglHGPGjfNIK8kQRZ8/17ED1qw1ggbAmdOnMeBFXYjuSy8Nwug33kD1Wgb0xsTERAx8sR/SSxiTb58E+dCwUNSoUROxtWMx+s03OVgiU1q3Zg2WLF4i/LhKBFI9FAxCqxotk60EC6FZVr/YZE0nqzoR5S2k/IUVJTpV6Mqlzs1A5qXjmDl7FoYOH17RZh1SX8ggN27cwJi3xnLthrfsCN8InTOCVqPhrpoUJ5OfckuPUkLfETTQH7t3lRrLY3Xqori4GG3btsWcubNRSxap12TJE+VITr4HsVgCbx9vTlbhf4SaN3MTVKvV+PvoEbw2xBCWzgL5CQq59WxKDlmxsht5aBiEYxIzjo30eUT7F+EeqPNwzctIQUGW45xG+fwYrw0dillz51TydtnWvJBBSIPFP3j+9VrCPaQm1MoiqIsNshUZLbMvHtU3TkbAy9dKp43o2b0HLl++jJiYGHy26lMOmI7PSWLbyMyXys/Lxb07d/Bi337IzRWERUvEEfHxzgWxfqgYhJbfNGsVfSYUTh3tK8W7vHfq2AGrTK4lFXloKlJXyCBkF+nTWxdZaSmNQdY/+426PH7qJEJCdB4IPJEqllSynp6e2LZ9q5Emq0LjTUtDZkY6Fr67CIcFXr5aEfNEYmKiLjuPk+ihYxDdSSL9AmBe59c0vGUH+JZgPTmaQaiP7ItHUC8mGr/8aTB2OWk/uW6FDEJ/d+6kczywhFqSc/mYkXPi5q1b0LSZQfVK9T/75FMs//BDrq3tO7ahRq0IBAhsOKmpqTiwbx9ndyGVb1h4OAd5Wq1aNe53WQL6vTu3uexX33yzEd9u+tawdKy2RXxS0hlnruVDySAxMllPlsV2fmFDGrVBQGxj7s/KYBACMvASA2cvXnDmXur7NmWQ/v36Izs7Bx41Y+FWEhpsOlDyM1ML4Fk/XL4cPXsbRymSsZCMhkSk6n2sQQOElGiyDh08iBnTpuFeSdZd0/YJI7hps6Z4pm1bvNCzJ2qWCPik7VIkJHDGxl27duGjD5frq2pFTN3ExMTKQR63caceSgaJjYx8RqtlD/JrEFi3BYIf09mdKoNBKAUyga6dOX8Ofn7WA5Bs3JtyFzNlkGFDh+P27dvwqBEDt1DzeUP4OfCdTnj7bYwZpxPueTp+7BhefUkHDL7k/SV46qmnjDRZ5RlwTnY2UpN15o49e/Zg2VLdCUUUr5A7/fl0+gDKs6jW6sSYJAf1j2qA0Ka6lAiVwSCFt+O4wKJfftuJ+o89Zm14lf69KYNMGD8BV6/+C/fqUXAPM+8wSGBwFP/OU98XX8T7y4zw+zhDIRkMiaZMmYwuXbtwcggjYiBiRGBEIk6rZeqjZWnCN+VyKEviTrZv34HVq1bzxZPiFXLzg630FTR08FAySJ1ataqrReLb/DRJtUkqzspiEB7Q4JPPPkPX7ga3lvu4j0ZdmTIIATVQfnS30Ah4lAR2mY6NUhkQkgpPLR9vie9/+smoWNz16+jSqTP32dBhQzFwoMFDQVhQ56pDjMLomIZjHkbPPEJG4g2aVJ+uV3TN4ojFjvgkufEdzwkL+nAySJ06Puqi4hx+PYX+WJVxgvBpC6ZOm8b5ITmbTBlkyZL3ubzorkHVywSmJlCIwtsGV4/wauE4cvw4iouKOAE6Pz8P5Ag5oP9Abnov9HwBb731pkOn+uorg5GSogsnYBlMTJDLVzi0g3I09lAyCK1DtFSmSwtL6s2QGqj5jO5lVBkMwttCBgwaiEWLF5djGxxbxZRB+LzoLv6h8Io0fwXkM+8KR3Ls72NcrnWeCgsL0aunLjCszdNtMHv2LIcN/OSJk5g922BHEoGtXxWggP4TDOIeEArCyCLKSb2DotyKu68LnwzeFtK8RQv8+LNRDiCHPUD2NJSVmYH0VJ2zIhGvPqUoSO8YnTbPlMzlTCRNVS2BOwnV4VXG9erXw4oVBo2TsD3SmBXk5yMvPw9KpRL+/v4IDg62aFQcPWo0EhNLcucwOBUvlz9uz5wrq+x/gkGEadls8eYtz2LnXDwKb093nL1wvjzVHVonJzsLqcmGzL688Ovi7Q+vWF3svClpCnKQe83Y5LBo0UK0aGnINHXnzh0MfW0YV5Us6HXq1IZWq+VUyGSQpB9yRSmLYmNj0btPbzz3nMGVnsp+/vkabCuJN6G/WQbDEuTyDQ5dlHI29p9gELGbO6K6DuHAG9IU1zg/JEcT2UII3NmcBdrRfVlrLy83B8klQVJUltzRly5dBlcvH3jWNp9aTZiUk2+/b98+ePLJJ3Hz5k3s3r2H89K1hygupn69epy9JDY2hjMYComY6cNlH+HgQb1G/lHIrT0LXJGy0VIZSXt6XwmK4QiIbQK1i32oG7aOgc8Q9c23m/BUa+fGhRTk5+Hubb0SDydPnsLsWbPh4u4Br3plh3ubupvYOndhOUI1GT58GCg018vLy2wTdJUi7+Dff/+Ds88IKFfD4HG5XG4fJ5ZnoDbWeZhPEFrkOqbrIHJxg3s1GafRcSTx6djMBRs5sh9b2iosKMCdWwYk+ytXrmDiBJ0F3L9p+zKbyL5whAOpLoOOM2C+1IhwSqPRJCUlJeldoiMjI8NEWm3c/3Pdc963xCQxMdGl7CFKpQqJiQkoLjZBedd1WKTVMp0SbyaWgly0Zc6VVebhZZAI2QYweK2shRO5ecC9WiRcKT7bAUSGQjIYVgVNFqlmbyUp9LOiK9KI4TrXtLIYhK5YeTfOlgKLY4AvGbDLrGmUYiIiX2EZdmP5lpI9Da1kaPzN+Evlq195tR5aBomMjGwk0rJHKIza0vKJ3b04RnEpwc4q71LzWqDGTZpgy/ZSeBLlbbZc9VRKJZLkifq6JESTPxaRb/0nQBl1OURFwvUq1KErloXWInF387127ZpNqbliZLInwbLNwTIxYNgYFgwJHYQNRD8+AJsGMIT9mgawV1jguIhl/45LSnIs7H65Vs18pYeWQWi6sTJZEy1LbzVDUtCy1k7s4a1jFL/gci0vnxqZoHkuXnXuflMAkiLBYPSjCfHqWXsmV9UwquwZu6PKPtQMwi9SdETkYIjYMWDR0trCiT194B4us5tR+Fwh1P6+gwcQIXWeGxGpXhPjdLk8eOrb50U9OJu1NaDviTlctJo+127etA/WxZbGH6Ay/wkG4fcjRiptygJvAAwhWltUZ4lc3eEaXB1uQdXASGyDsKFkOsQon32+Gp27GIE/3vdHIv66sZf4a68Nxd07OnwsnsQSyT8uYolrUXGR0Lyeq9Uy3auasHzfF7Ckw/8Ug/CLXLdGjSCVREKZqyYAjNU7lcTbHy5+QXDxCwEJ92URnwF23IQJGDdhvLP2lOuXThA6SXgaO3Ycrl+7jsioqGu9er2Q/MwzbRt6enoEZGdl3ejff6AQ+vBMvEJu3lji1Bk5p/P/JIPwS12nTh0fVWHxdIbBRGsnCl+H1MRiL1/QVUzi6csxDJ02RLwthHBo121wLmLN/9q79timqjD+OwNDwECiEVaU9HbtUCAh4B+QiAF5xEXYXEx8y5jhEUAFDAHdBHQdU5FFCQymhpfMwMAwEhPBfwhmUVgxokywILC2t6xTKGxjHU+32yPndr1t1xUu5d62lPMlzV7nfN+539df1vP6/USnA1KYLsjyZctx5MjvyM/Pr3lnwdsvhb/dcqfmtXRKnTK9IyX4wSmK+cl5O6Ze1PsaIMpHr+zsgbSjYy5AmOpn5HavypoxkDDOX0aAwM4eHak/qrKnPs3YKhZbzQraqk8/Q21tLfKez9u+cOGCgvCohQWFp857vfKeESHY3yCKOfqM6t7zygHSrWYWk2nezRmqlbHk3E05aw/+0iP/0934vJO+bB+E7YcELXjXIjd32pZF7y6K4CeyWkuP2+psI+X/IEC90y32fGDrTgaQJm05QGIUkm18+Yk/n4Cw2fbtBcG7+anYsEGVypJe76N/Ghtx7dpVxX3lhkqZuTAn59ktS5YuiQDI3r37GtZXrM/uAkhK8FHplZc79csBoiJjZqNxCiG9plLQKQQYraILZs2Zg2UrIrR+1HTTrA07rMgOLQZt48ZN2FOzB5MmT9pZXFwUoffY1NR0Y9bM2X2CbXtJnUNOezwRh6Q0G9g95ogDJI6CycvFhAjwYxAIGUQIZYSzhFIoN36SvaPefMErs6YHrWpbFaqrd2L8xPHfr1i2POoq67SpuW2SJMmMExT0RafbHSF3F0ea0qILB4iGZTQLpsMEUGj7j9nt6PdgPw0jqHfV/dIUAwcDybhxT+0vsZZE8RhPn15gv3jhorwfQkHWON2ucMEO9YHTrCUHiIYFNRtNJTc5rdkEX7atVdtkHqhkGLsq6z0X2hhkH6/Yx6yxY8bYyj4pC4nHdw2uqPiDw/V/HJXPwqeSPkcychcekwNEwwpkZWWNzfDTX4Mu5701H+8VFWkYQb2r7kfegzoho0ePOr66fLW8YhVuVduqDlVX71QuskgEfUVRDC2DqQ+dVi05QDQuZ/hFrWTOQxjXFOOcCtqBAz+hfHU5ho8Y4Vy7dk2U5JWtzlZvtZaGFiBSgPZT49LE5Y4DJK60xe5kEYRvu856yY3+tP8V82adxqEj3EmSBNHRoPzOZjsMa4kV2RbLucqvKqP2eE7Y7WcWL14SOnJCMNMhigHttvvYOEA0Lr5ZEN4gIAoD89ebNoKpxibDnA1nFEXf+vp6FL1fzEik27Z+syWKH9Uliufnz50fdnuMfORwu8qSMe5UiskBonE1jEbjQw+QDHYpSLYZbxaipLRU4yjq3IXvpgeFdB4Z+Mj1HTu2R51k9nq912cUFIZ+T7DOIYpR+o/qIqdPKw4QHWppEbIOAlSe8DI5ZSarnAxjq1hB4je27zd71mym+iTV7NmtiC5evXKluc5m+21n9a4+Ho8ndGGdoNwhislZYUhGsmLE5ADRoRhmk6mYUCgUi4zCk1F5JtqYKE3LxYCaVmtrK157NbCBnmnI/M7X5su8fv3GUEr9j/U4LoLXHaK4K9FjTrV4HCA6VMQ8xDyS9PIrYiGrylfj5VdiCvHqMIKAS8Zu+G+TR/F/B9dujzncYs8UjLqNNjUdc4DoVBeLIDQCRJZzZZN0NllPtHW/mx5ODh17LHT9DUmyejweZR6V6HGnUjwOEJ2qYRayviCgATIqAMdP2NG3X+KPnYRfvS0uKsbRoyE99K6htROCw5SSnyVCN4uiGFCz4SZngANEpzeCRRDGAUSRjk3WPfVGt4j/uvhyK9ZVYN++H5Un9lOS4zrr2q9TCtLCLQeIfmUkFsHEKNYZJ5Ss98d0/xJl7b42tDQ3o7MjxJRYs7sGmzZtVoaQKhIDicpJPHE4QOLJmso+2YLpywCLCuTddLarrqex3fPLPh8uXWqNAEYwpq3OBqs1tCeTQfDkGVGM+syl5xjvNd8cIDpWzGI0Pg2SwdgdZZs0eTJy8/IwYeIzeDhMPvluh8BWq9jryuV2sIl5LDt0qA4rS1cqf74593iuQRS7NM/udhTp2Z8DROe6Wkym06AIp9WRIzJJgPETJmDY8GEYOvRxPDEsimf7liMLgoJ97eiIJoP2+XxgpNWM6ufEyZM49fcpXL0auoIrO6eY5zgrJn55Teeca+meA0TLbPbgyyIIS26ynn+uJozZbIZgMsFgMGDwo4ORaTDAYBgMUCqDoKOzA1JHJ5gUGrstyBScLrcz/cAr8PnalZ8ZWfWFMIWpWLH9GWSUy+VKDXF3NQlKQhsOEJ2TbrFYBqFTCsk96RxPvXvyocPt+lh9+/uzJQdIAupuEbKWApRN1qPuYSQgfPcQ1yjoAqfbnVxmuyQ8eDwhOUDiyVqcfZgkA5HoC4SQHAo6mgA9SzDF6f9W3QjQQkGr0bt3mcPhCGgtc7ttBjhAbpsi/RqYzWYj8ftHgJKRgH8gKBkAggEEtD8FYVxcAwDaH4Hv2aunrXh28byFUjQToJUQNIPCS4FWSujFDJpxAZCcDWfP2vV7kvT1zAGSvrXlT6ZBBjhANEgid5G+GeAASd/a8ifTIAP/A7GdcAPw7NGTAAAAAElFTkSuQmCC;" vertex="1" parent="1">
          <mxGeometry x="340" y="500" width="50" height="50" as="geometry" />
        </mxCell>
        <mxCell id="EB9Ou6GKdFQ_Ul-n4hss-9" value="触发Jenkins构建任务" style="text;html=1;strokeColor=none;fillColor=none;align=left;verticalAlign=middle;whiteSpace=wrap;rounded=0;" vertex="1" parent="1">
          <mxGeometry x="390" y="510" width="70" height="30" as="geometry" />
        </mxCell>
        <mxCell id="EB9Ou6GKdFQ_Ul-n4hss-11" style="edgeStyle=orthogonalEdgeStyle;rounded=0;orthogonalLoop=1;jettySize=auto;html=1;" edge="1" parent="1">
          <mxGeometry relative="1" as="geometry">
            <mxPoint x="500" y="524.5" as="targetPoint" />
            <mxPoint x="560" y="524.5" as="sourcePoint" />
          </mxGeometry>
        </mxCell>
        <mxCell id="EB9Ou6GKdFQ_Ul-n4hss-10" value="" style="shape=image;verticalLabelPosition=bottom;labelBackgroundColor=default;verticalAlign=top;aspect=fixed;imageAspect=0;image=data:image/png,iVBORw0KGgoAAAANSUhEUgAAAPoAAADICAYAAADBXvybAAAAAXNSR0IArs4c6QAAE7hJREFUeF7tnQ2MXNV1x//nznpNoG2USDQgkgZb+QAs7cwaEwNJK9wqJqVQJYpK0qox4aupCnFkitmZtWkWDDuzDiKYJG0iSIONoqBNlYbv4taYAFLWfO3OELtGIJekJcVtA474MMb77ilvjDeLd+2dO/Pem3ff+49keYXPPfec33k/ZnbezHsCPkiABDJPQDLfIRskARIARedBQAI5IEDRczBktkgCFJ3HAAnkgABFz8GQ2SIJUHQeAySQAwIUPQdDZoskQNF5DJBADghQ9BwMmS2SAEXnMUACOSBA0XMwZLZIAhTd42PAVMeHkijfVvoT2SeJXvK6B0X3ePKmVte4y1fIQ1ruWxb3PswfLwGKHi/fWLNT9FjxZio5Rfd4nBTd4+ElXDpFTxh4lNtR9ChpZjsXRfd4vhTd4+ElXDpFTxh4lNtR9ChpZjsXRfd4vhTd4+ElXDpFTxh4lNtR9ChpZjsXRfd4vhTd4+ElXDpFTxh4lNtR9ChpZjsXRfd4vhTd4+ElXDpFTxh4lNtR9ChpZjsXRfd4vhTd4+ElXDpFTxh4lNtR9ChpZjsXRfd4vhTd4+ElXDpFTxh4lNtR9ChpZjsXRfd4vhTd4+ElXDpFTxh4lNtR9ChpZjsXRfd4vhTd4+ElXDpFTxh4lNtR9ChpZjsXRfd4vhTd4+ElXDpFTxh4lNtR9ChpZjsXRfd4vhTd4+ElXDpFTxh4pNtVx8+KNN/hklX6H0pkH24SGwGKHhtaJiaB9BCg6OmZBSshgdgIUPTY0DIxCaSHAEVPzyxYCQnERiAbolfHzzJitsZG6e3Es92HTGqNrQKN/U0xq3YZDnlTjO+6xz3x7OSn6A6zpOgOsBiaKgIU3WEcFN0BFkNTRYCiO4yDojvAYmiqCFB0h3FQdAdYDE0VAYruMA6K7gCLoakiQNEdxkHRHWAxNFUEKLrDOCi6AyzPQk21sUoK9tngqtI9npXeUrkUvSVMB4IougMsn0KHnzrDmMIogPcD8h1rCkO4atGLPrUwV60UfS5C0/6dojvA8ihURuqjovizaSW/ICJXBwN93/OojSOWStEdJknRHWB5Ehq+ZIfojbOVq4IfqsG1WF38mSftHLZMiu4wQYruAMuH0OZLdrMFkHcdodxdRnHpZKX4oA8tHa5Giu4wPYruAMuDUKnVtwjwh3OWqnhVRC8OyqXw93gvHxTdYWwU3QFWykNNbfwywHzTpUxRuTCo9N3msiYtsRTdYRIU3QFWmkOHtv+WOSrYBugp7mXay225/1vu67q7gqI78KfoDrBSHGqqEwMQqbVdouIqWyl+re31XVhI0R2gU3QHWGkNXf/YccYeFT6b/15HJaq9xlb6hzrKkeBiiu4Am6I7wEppqKnWV0OwPoryrMXpGCxuiyJX3DkougNhiu4AK6WhhdrEYwo5LarybAHvw+ri/0SVL648FN2BLEV3gJXC0ML6xjlq9d4oSxNgW1Aunh5lzjhyUXQHqhTdAVYKQ02t8T1Avxh9afJ1W+67Ivq80WWk6A4sKboDrLSFVsdPNGLCj7IeE0tpglV2oHhTLLkjSErRHSBSdAdYKQstVCcuUpHvxlmWAH8alIt3x7lHu7mzIzrQ/iWXjVFYe3gW0/790FMqpjruforl0P1m23/6fzNGrbU/mXG553b2buNI8ek00uHaM7XGtwH9Uhvtt7xEgfu1XDyn5QUJBmZD9ASBcSs/CZha/d8BnBR39aJyflDp+2Hc+7jmp+iuxBjvH4F19QVmHnYlUbgCW7VcnPuLMkkUM20Pip4wcG6XPIFCrb5CgY1J7SyiK4KB0u1J7dfKPhS9FUqM8ZqAqdY3QLAyqSZE5KfBQN+ZSe3Xyj6Rit58Y0rMV1vZuJOYGfch473XOsF5xLWznWno2pzb7FJqE/cI5E/aXN7WMoH8VVDuu6WtxTEsougOUHl67QAs30Q3tcYOQE92GHUEoTpqy6XPRZAokhQU3QEjRfdV9Po+AL0Oo+48VPXndt/LH8LQssnOk3WegaI7MKToHop+3dMfMD32Fw5jjizUCs7AQHEssoQdJKLoDvAouoeiJ/T+zeyHka605dI3HA6x2EIpugNaik7RHQ6XMHSTLRcvcFwTSzhFd8BK0Sm6w+EShj5jCzgVq4uvzVg3tLUHve9ZCIPfRSB70IM92NuzB0OLXnXco6Vwit4SpgNBFJ2iOxwuzdDwVHABslAhC996hl8ogoUKhD8fe5hc4Zt3ewDZI8AeC7tbRBpi8XQA3Yl9k89gaMnrrnVQdAdiFJ2iOxwucYVaAA0AO6H2GavBHRhcsnOuzSj6XISm/TtFp+gOh0tCoRq+ArhDoHcE5f7DXj2HojuMg6J7KPrIkycb7dnhMGZ/QwU/sAYbsHrmBSspusNYKbqHooef5Kt14QMzDsdV5KGif2f3vlyd/mEdiu5AmaL7KXqhVn9cgSUOo/Y+VCGbVYPqwYuVUHSHkVJ0P0U3tfqtAC52GHVWQl8HtGoL8nWK7jBSiu6p6CP1lVBscBh1pkIVeICiO4yUovspOrr6MViHAyyuULXXUHQHuBTdU9EPvCH3EoD3OIw7K6G/tPPnLaHoDuOk6D6LPvGPgFzoMO5shL59M0iK7jBOiu6v6IVa/fMK/MBh3FkIbT6bY9Up/03RHcZJ0f0VHeu3H2fs/v8CpOAwcr9Dp93amaI7jJKieyw6AKnV7xLgPIeR+xw69WweNkHRHUZJ0f0Wvada/5QV3O8wcn9DrV1lB/un7gVH0R1GSdH9Fj2s3ozU74AiNRdtdDj8Wg5VyI+13PeZ6QsiFT08X9lyNZ0GVvofmkrRrX3DAvKw93TW3e650+NmuP77xuDhTtOkdr1gj520y7CmfyI+0VPbPQsjgd8QMLUMn2o75CX7wa6jfUbn0UQCaScwPP5xYwoXAXpR2kt1rW+2l+wU3ZUi4/0lMKqFwnP1P7ZGvijAZ/1t5AiVH+YlO0XP5LTZ1BSBoe3vLcyfPFtFlgM4G9Djs0xnrts186V7lqefl97Wbz+uYIN+FSkpbL+o9gPyoby0P5fkIQfB8FPHiukZzQsU9ukvAQM9SgVHQ+VoQMM/xwDhz5jnb1edVd6K5AdEX7+9ZOzkeGfbcTUJkEDSBFqVvCl6YXjiXDVyd9JFcj8SIIF2CciTAqwLyn13tppBTK3xJUC/3eoCxpEACXSTgK63b8xb53pHFzHV+nUQrOlm6dybBEjgyAQEeFRU101WSpvbYSWmVg+/o/v5dhZzDQmQQOwEdkHt7XZf6VoMSXiXlrYeUqg1HlPoaW2t5iISIIFYCAiwTWFvt/KuTRg46ZVONxEz0vgVVN/baSKuJwES6JjAKwp92ACbgnIp0lPe4Ut37bg8JiABEmiLgAJbRLHFGB2bNPLYrLdYbivzOxdR9AggMgUJhAQU8q+AvgFgn4R/i7wBq2/AyN7m32J2i9pfBgYvYD9ewNrSC0mRo+hJkeY+mSagwJ1aLn46rU1S9LROhnV5RcAW5Eys7vtpWoum6GmdDOvyhoBAngjKfak+c0XRvTmcWGhaCQhwQVAubkprfWFdFD3N02FtHhCQ52y578NpL5Sip31CrC/lBPRqWy5dl/Iiw2f0xl5Aj0p7oayPBFJI4P+szF8YxSfX4u4tfEbfCeCjcW/E/CSQQQI32HJxtQ99idQaDwg0vK4WHyRAAq0TmLQB+rGm+LPWl3QvMvya6i0QXNK9ErgzCXhJ4B9sufg3vlQupjax9q0LzazzpWDWSQIpIPCKtcHpGFy8IwW1tFRCeCmpL6iRVJ8DbKkTBpFAcgSGbbno1cVaBLXGHxjoT5JjxJ1IwGsCv7CmZymuWvSiT10Irnvqg6an8LxPRbNWEugigdW2XLyhi/u3tXXzBg78Tnpb7LgodwS0bo8+ZilWfnifb603RS/U6tsU+JhvxbNeEkiSgAguCQaK301yz6j2OvCMXp34BkQujyop85BA1ggo9CEtl5b52teBZ3S+8+7r/Fh3QgRE9LPBQOlHCW0X+TYHbrI4Uv+oUYQfheWDBEhgBgG5zZb7LvQZzNTdVE1tYg8g7/a5GdZOAjEQeN6qXYZKv9dnpqZE52feYzhEmNJ7AqL2wqDSf5vvjUx7Rm+sA3St7w2xfhKIjoD/L9kPspgSvVCrn6fAXdFBYiYS8JpAJl6yzxAdX75vvjnhhPCa1HyQQO4JZOUl+0zRwwvIjdTvFsW5uZ8yAeScQHZess8qeqFav0QFt+R8ymw/3wQy9ZJ9VtGxrr7AzMOufM+Z3eeZgIiuCAZKt2eNwdSbcQcbK9Tqjyjwiaw1yn5IYG4CcqMt9/3t3HH+RcwQ3dQaawHlFWf8myUr7oCAAg/qwmeW4/zzgw7SpHbpDNExPP5xY8yjqa2YhZFA9AResirLUel7MvrU6cg4U/QD30/nJaDTMR9WkQABn79+2iqe2UWv1ochqLSahHEk4C0B1W/aSunL3tbfYuGzio4btp9iJvc33ro6bKHFPAwjAe8ICPBo0Pvaclxx5l7vincseHbRmxejqN8GwQWO+RhOAr4QeNVaWY7B9N7TPEqQhxW9Z2T8k1bN5ig3Yy4SSAsBAf48KBfvSEs9cddxWNHDjaXW2CzQT8ZdBPOTQJIEfLifedQ8jih6YaR+gSq8/y5u1NCYz18Corg0qBRv9beD9io/ougY1YLZ1agDWNReeq4igRQREFxmB4p/n6KKEivlyKKHb8qN1CtQDCdWETcigTgIKNbaSvH6OFL7kHNO0XH90+8zBTsG4EQfGmKNJDCTgH7Hlkt/nWcyc4vePNXWWAXRG/MMir37SUAh92q5L/fXWGhJ9PB39cKup8cUusTPcbPqPBJQyGYt952dx94P7bk10Q/ctmmFAhsJjQR8IKDAnVouftqHWpOosWXRw2KkVv8XAfh/yCQmwz3aJ6D6fVsp/WX7CbK30kn0wvrGOWr13uxhYEeZIaC42VaKX8lMPxE14iR6uKep1b8P4C8i2p9pSCBCAvpVWy5dG2HCzKRyFh3D9aXGIDzdxgcJpIiAXG7Lfd9KUUGpKsVd9APP6lcC+FqqOmExeSXwkgCX5ekLKu0Mui3Rmy/hR+qboPhCO5tyDQlEQUCAbYHFVzBY3BZFviznaFv05ifmjN0MQV+WAbG3lBII31mfP28lrlj0UkorTFVZ7YsOoKc6sdyKPJCqjlhM9gmovcZW+oey32h0HXYkevMlPH9fj24azDQXgZdEZGUw0Bee+eHDgUDHovP3dQfaDG2bAH8fbxtdc2EkovP39c6GwNVzEthke3tW8ffxOTkdNiAa0cP01capBvrPEHyg/XK4kgTeQeDXEAzm9WIRUR4L0YnelH38LCPmxwDeHWWRzJU/As1vnsnkGgwsfiJ/3UffcbSi/0b2rdGXyoz5IaDX2XLp6vz0G3+n0YtO2eOfWlZ3EGlIYNcEg6V7stpit/qKR3TK3q15+ruv4FYbBIMYXPy//jaR3srjE52yp3fqKaosvC0SJNgQDCz+pxSVlblS4hU9xDVSf79R/GfmyLGhTgk8C8gGfuOsU4ytrY9f9LCOm5+dX9i7d6uqntFaWYzKMIFXIHKTDeZtwODJv8pwn6lqLRnR327Z1CZuBGRVqgiwmCQJ3GJ7em7ClYt2JLkp94rqk3EOJE2tUQa06rCEoZ4TUMFdBYsNk5Xig5634m35iT6jH6RUGKlfrIrc3f/K26Ok3cJVbzdGNk4OFLe0m4LroiHQFdGbpdcmPiEiFVGcE00rzJISAnsAbLSqG1EpjaekptyX0T3Rp35vb1wGaAXACbmfht8AdgG60fb0bsSVp/zc71ayV33XRW8irT6+0EhvGcCl2UOc7Y4E8rgKNln0bsTASa9ku1t/u0uH6G/zK1QnPgORsgIf8xdpLirfB8WoqI7y46p+zDtVojeR3XzffPPa8RWICS88udAPjHmpUuuAjFqdHEXl1Ofy0nUW+kyf6Aepjuz8baNvrhBoeM83PsN372hTqI6KwWgwUPpR98rgzp0QSK/o07oqrJ/4nFVZwXfoOxm121oFHhS1j1jVUQwu5gdc3PClLtoL0Q9S6xmp/5FVrACaf/iIlsDzAO4X4OFgUh/B2tIL0aZntm4S8Er0KVDDEx8xgvNUzLkCPaubAH3eW6FbBXKfVd3Cc94+T3Lu2v0UfXpfzWvVBedBzLkATp275bxG6F4FxkRlTBRjwZv7/w1DS17PK4289e2/6O+QfvwsY8y5UJwH4CN5G+Y7+lXshGh4M8wxCzuG8uJ6rnnkvPlsiT59mCNPLzFqTwNkCUSXQDN966jtKtgh1u4wMGOT++wYhvrDj6LyQQJNAtkV/dABDz91bAFmqRosVZilAiwF9Hc8Ow6mhBYUtgfzCtv5lU/PJtilcvMj+myAr3/iePT2nlgIsEA1WABjTlTFAgEWAHIioCahubwMyIsK7BbR3bDYDQl/xm6oeTHoMf9BoROaREa3ybfocw31hqc+iP2yoAfSqwX0Qgu9sHY+TPiz9CrQC9j5aP6NXogEULsfYt4E8KYc/FnwJhT7m//t7Z8nYX6N/diNSbMbQ4vCeD5IIDYCFD02tExMAukhQNHTMwtWQgKxEaDosaFlYhJIDwGKnp5ZsBISiI0ARY8NLROTQHoIUPT0zIKVkEBsBCh6bGiZmATSQ4Cip2cWrIQEYiNA0WNDy8QkkB4CFD09s2AlJBAbAYoeG1omJoH0EKDo6ZkFKyGB2Aj8Pw/QMy5PlbI+AAAAAElFTkSuQmCC;" vertex="1" parent="1">
          <mxGeometry x="570" y="510" width="37.5" height="30" as="geometry" />
        </mxCell>
        <mxCell id="EB9Ou6GKdFQ_Ul-n4hss-13" value="" style="endArrow=classic;html=1;rounded=0;" edge="1" parent="1">
          <mxGeometry width="50" height="50" relative="1" as="geometry">
            <mxPoint x="364.5" y="310" as="sourcePoint" />
            <mxPoint x="364.5" y="360" as="targetPoint" />
          </mxGeometry>
        </mxCell>
        <mxCell id="EB9Ou6GKdFQ_Ul-n4hss-19" style="edgeStyle=orthogonalEdgeStyle;rounded=0;orthogonalLoop=1;jettySize=auto;html=1;" edge="1" parent="1">
          <mxGeometry relative="1" as="geometry">
            <mxPoint x="500" y="660" as="targetPoint" />
            <mxPoint x="550" y="660" as="sourcePoint" />
          </mxGeometry>
        </mxCell>
        <mxCell id="EB9Ou6GKdFQ_Ul-n4hss-14" value="" style="shape=image;verticalLabelPosition=bottom;labelBackgroundColor=default;verticalAlign=top;aspect=fixed;imageAspect=0;image=data:image/png,iVBORw0KGgoAAAANSUhEUgAAAMgAAADICAYAAACtWK6eAAAAAXNSR0IArs4c6QAAHuZJREFUeF7tXQmUG8WZ/kvHzEiaW5rLhMvx6Ag52DXwQg4gIcvGNsYeH5yBXBtu29iYM1muZCEYM7aBEI5sCNlw+DbYAyEhCYQEkwUTCAsjaQwGA3Nfkka3umu3x4x3PB6NqrurulvT1e/5Pb+nv/76/++vb7rUn7p+BPziCHAE8iKAODYcAY5AfgQ4Qfjq4AhMgQAnCF8eHAFOEL4GOALKEOB3EGW48VEmQYATxCSF5mkqQ4ATRBlufJRJEOAEMUmheZrKEOAEUYYbH2USBDhBTFJonqYyBDhBlOHGR5kEAU4QkxSap6kMAU4QZbjxUSZBgBPEJIXmaSpDgBNEGW58lEkQ4AQxSaF5msoQ4ARRhhsfZRIEOEFMUmiepjIEOEGU4cZHmQQBThCTFJqnqQwBThBluPFRJkGAE8QkheZpKkOAE0QZbnyUSRAoWoIMLPXfJObg/GQU+coq8O5SB76t6onQb01SN0OnGTnHOyedQbenopbjyyrwm1Yb2ure0v5jQwedJ7iiJEjkfO9JIwOW3UIOWcbyKinD0YpS5Hdta+8qxkJMl5jj3wo0xYZwKJNCFWM5WWxYLK+Ek6o3B/cUW55FSZDehf43UjH0hYlgS3+t6ncEjy+2IkyneHsW+t9IT6PaFCVBPp4TSAsZKJm4sKwlkDni2fbS6bTgii2X6VaboiPI4BLftSNDljvzLZxyt3h97aZQ3s+LbcEVU7yDS33XjAxa1uStTY14Xe2WUN7PjZhr0RGkr8X/38koOjEfmGUVeE/9juAJRgR7usfUt9D3t2TMclK+PB2V+NW67cG8nxsRn6IjSOccfzKXQWX5wLSW4PQRzwbzfm7EIkyXmD6e408KU9TGVoJTM54NOoop36IiyNA5/mWxfnRPIYBdHljp3ti+vpAd/5weAv2LA1ckhuG+Qh4rPHh5zcbgvYXsjPJ5URGkd6H/r6kY+lIh8Moq8Sv124MnF7Ljn9NDoHdh4KVUDL5SyGNZBX65fkfwy4XsjPJ5URGkc24gnkuDsxB4tjKcnNEWLGhXyA//nByBzrmBkVwaXIVG2EohMeOZ9oJ2hfxo9XnREGTgbO8P4gPWh0iBcXrEyz0bQz8nted2yhHoX+r/TmIQPULqweUWLnZvCj9Maq+nXdEQpK/F/6dkFJ1GClZZpfiX+u2hr5LaczvlCPS1+J5PRi2nk3pwVOIX6rYHv0Zqr6dd0RCka14glk1BOSlY9jKIN7W1E9uT+uV2hyPQNdcfyaZRJSk29jIYaWprP/hTFNJxetgVBUEGz/nMBSP9+DdyAXJ5xO+5N4aIb/1y/XN7gIElvqXxIcsmuViUe9C3aje+85jccVrbFwVB+lv8zyWi6Ay54DiqxD/VbQt9Xe44bk+OQO8iX1sqYplLPuKApbMS/86zPfivcsdpbV8UBOma5x/OplCVXHDsDhxr2hUkvvXL9c/tATrnBQZzKaiRi4W9DEea2oLVcsdpbW94gvQv8S9KDKGtSoFxucVz3JtCsrcASucz07jexd65qWFrm9KcnTV4sWdLcJvS8VqMMzxB+hb7dyaH0ZlKwXBV4+fcW4PfVDqej8uPQG+Lf1sqilqUYuSoxrvqtgbnKx2vxTjDE6RrXmAgm4JapWCUOHCkcZfxb+VK89NzXNc8f282heqUxmAvg8Gmtna30vFajDM0QSLn+b4Z6bU8qxYIV704x81fx1UL4yHjexcFTklF4EW1TqvqxTlGflXa0ATpX+zfkhhGi9UWwVmNd3kMfitXm6PW4/ta/I8no+g8tfM6q/FWz9bgErV+WI03NEG65/t7MglUrzb5EicMNu409q1cbY5aj++e5+/MpFCT2nlLnLi3cWewQa0fVuMNS5ChswOnxAbU38LHgCutwV9u2BJ8mRWQZvLbudA/OxdDr9HKucINp9Zsav8zLX80/RiWIP2L/Y8lhtH5tJJ11uLtns3BRbT8mdlPf4vvPxNRy/doYeCsxo97tgYvoOWPph/DEqT7LH9nJq7+Fj4GVokT9zfuDCp+4kIT9GL31T0/sD+TgCNp5VHiwl2NTwdn0PJH048hCTJ8ru+EWL/lVYzppYoQgM2R/WzTzr1v0/NqPk//9+Xcm4qhEO3aVHjEE6ufDFHbttGqjCEJMrDE/8v4EPourSTH/LhqxY3uzaFzafs1k7/+Fv99iSi6gnbOrhr8iHtLkNq2jVZ8hiRI91mB/Zk4vVv4wS/qLuhpeLq9kRZ4ZvTTPd//XiaBjqWde4kLPmx8uv0o2n7V+jMcQWLnNAcig7a3RRGox2axAOBS4VNH7gp/rBY4M47ff5ZvhiVp+VgU6WdvsQCuqs0dV7Gxo52+d+UeqS9C5aEcGNm3xP9AcghdotZPvvGuWvwr9+Yg9e0bq3iN5LdvkX9tMoKuZhWTowY/WLcleCkr/0r8Go4gPWf530vH6d/CD26zynFnw1PBI5SAZfYxPfMD4XQCmlnhUOrC+xqeDs5k5V+JX0MRpPP8Y48WB8reE3Nw8NR2JUlNNcZiBchmSmuOfeGNYdq+p7O/facdX20vSQ+JArssLTYQLe7UzBmP7/uA3SzyPBuKIAOLA+vjw7BCXgryrZ014v2eLSHqT2LkR1I8I3oXBX6cisCPWEfsqoYN7q3tV7Geh9S/oQjSc5Y/nI4jZrfwMVAc5bC/7qn2o0lB4nYA3fMD72QSEGCNRakLdzQ8HfSynofUv2EIEj3P64kNWrqFHLKSBq/UzmoDjEqc5TN27kko9WGmcZ3zZztxJjEi5Og/WZyIo9WGhYpasbHyiXC/ETA2DEH6l/h+mhiyXKcVKK5a8S735tC1Ws1XzPP0LvTfkIqh27XKwVkj3unZErpeq/mmmscwBOlZEHg7PQKf0QqUsgq8r36HsZ6YaJW73Hl6FvjfTI+gz8sdp9S+tBzeaXiq/Til42mOMwRBPlx6ssMSG44KWbDRTG4qX1Y7xl19rtIT9uzJajVnMc7z2uzZ9hn18VQu8//9IFnnYbVDTqyorjxy8+4k67kK+TcEQQaW+G+JD6GbCwVL+3NXLb7ZvTl4G22/08lf78LAilQMNG8l4arBt7q3BG/RG0tDECRfU07W4Diq8N66bUHmT81Y58HSf+8C/2upETSb5RyT+TZKQ1ZDECRf40fWRbGVYnHGM0HmT81Y58HSf+ccfy6XYf9kcWIORmnIqjtB+pd6r08MWu9gWeSpfDuq8dV1W4Otes1v5Hn7zvL/IBlHxC0naOfirBVu8GwO/5S2Xzn+dCdI30L/q8kY0q3ppqMSv1O3PWiIJyZyCqeFbc+CwO70CHxRi7kmm8NRgV+r2xHM27BVi7h0J0ihppysQbCXYqHpmaBmT89Y50PTf9fcQDab1u7J4sTYjdD0U1eCDC31rYgNWjR/QjKxEI5K4eK67cXR8YgmAaby1bfAf35yBOnenqCiVryqZnNog1Z5T5xHV4L0tvhfTkWR7s02HVX49bptQc2f1OhVdJJ5+1oCLyajcAqJLUubskq8u357sGDjVlYx6EoQ0qacrJIf82svg1xTW7ud9TzF5L9rXiCdTUGJ3jHr3fRTN4L0neO/JNmPHtC7AGPzOyrhvLrt7U8aJR494+hu8S3IRC079Ixh/NwOD760bmPwQT3i0Y8gLf4XklF0qh5JTzanswq/7NlWPP27WeLWtzDwfDIGxE05WcYi+XZU4hfrtgeJG7jSjEc3gshtykkz6cl82ctwtqktqPuWgnWeJP475/lTuRQqJbHVwkbPpp+6EKR/SeCixBA8qgW4cuawu+DMpqfbFXdMkjOXUW0/nhf4hpCC3xstPmcNfNuzpf3XWselC0H6Fvl/n4ygb2idbKH5HJX4j3Xbg4bZWhSKl8XnvS2BZ1JRmMPCtxqfjir8fN224L+o8aFkrC4E6Z7nH84oaMqpJEE5Y0ocON24K1gmZ8x0s+0+MxDPJMFptLxKynCkUYemn5oTZOBc35J4n2Wz0QpwMJ4y4ZSj2sIvGTY+hoF1zwl8MZOB3QynUOXaVScudT8Z2qLKiczBmhOkb5F/VzKC5smMUzNzRxVuq9sWVNw0VLNAGUzU1+LbkYxaFjBwTcWlHrXRnCBqm3JSQXoKJyVOSDTubHexnseI/rvn+2OZBCo3YmxSTHo0/dSUIJGzA3MjA2D4p0Q5EL8w8w+hfxh1obCIq/uMwGczArzFwjdNn1VumFe1qf0Zmj6n8qUpQfoX+bclIsr7amsFirMaNnu2tp+t1XxGmKe3xbcpFbUsNUIsU8XgrMLbPdu06xSmKUGGLvJFIAOVRi9CLodSIBj3yyoT/Cxwss2Ojf8ErwSiNb8OVTHBYBKnmhEku2bWqajJ8gLsAQCG57vSAq7zHXO9iTvjM0VQFKkkswFwl3ia/dq9qnu0k6wVzQiSW+99AtxwLsQBoAiaoI30I4j2MjtDm6Q2mtlU1otQ7qHY745V5NJ7n9LjkwF40nZVWHWPdpIwtSPI/d4uqIAD3Z16AMAw53dPDlMuA9C71xx3kfpZAtiM/is06STlsW7qMei2XR5W3aPdMATBd/pOEJrwq4ec7PoeABji9NX8MJllm2X47ZUHAMZ3DcEA1i50IrqOfdNPTe4guXXeX4EHvn3YUpQeKup+dl5+gkT7EIz0Te9tVnmdCJV1Bt5eOQDgc5PUqB8eta0Mf4fkLqDGRhOCCD/zfogr4VOHBZoBgDfUhM92bC4N0Pvu9N5m1X9aAJthftg+ST2PB5jsvUYUhY+sV4Sp9WrPt5KYEyT201nHOZosb4Elz9H5QwDQwXahq/E+3bdZht5eSWde1uSpngg42SV+ruJ6tn3vmRMk1+p9EOrg4ikX6UcA0KlmGbMbG+1BMDIwPbdZ5W4RKhsMur2aATDJnuPQQvfBQ7ZVYWYNX6XJmBNEuN+7D1fAMQWXcBAAogWtNDfIpgD63pue26y6mYL0+ybjXZKU7C8cForB+9bLw9R7to+fmSlB8B3+Y4Qm8T2wEhLRiCIiBuhsn54EmREQNPgTWXihH2LxiRhINEoAbO2yzEQ3BN8nsldgxJQg2VbfBlSHlxPHZVARMdJtgfggU6iIIaJl6KrFUNUo0nJHz8+YGEjoEfehe+yrQswavzKteu4+bwdUwSzCXA+YGVBEzCYB+vZNr7tI3bEC2KVHqEa6xouBpHFFYK/tyjCzFhbMCIJvn1UnNFq6wa6g57nBRESMAbqm2TarKSAAYlZ90tU9zm6iGEjqIguitVtsRDfu7SMdIseOGUTC3c134nqkvEmmwUTE4U4LJIaZwSWnZqptndUYqmcYaHuVTwwkzBT14jXWqzuYNIBlVnHhPu87uEpFX22DiYiZBED/+9Njm+U5RoASIx3LkEcMJOQHoAi0W68MM2kAy4Qg+JbZTuHIWARKVB6dbyARcTptswy1vZpKDCRlSAZy1g8rqtAt9PveMyGI0Oq9FdfBTaT5TWlnIBFx6CMLJKNMIKMCFYkTRyWGmk8ZZHtFIgaSJCUJen1wm3VVmHojWCbVzt7r/QeqnvQnZoTpTjAziIiYjgMMfFDc2yz30QKUGuFICkIxkHTB4GF4y74sTL2XOxOC5H7hzUAp0G0nYAAREYsAXUXe87PJL4B2Hc/zLG85YiApQ9KQtf1bmPpbLdQJkl3rvRE1wH+Q5kVsZxARcfBDC6Ri1GEjhkGNYVkFhtojDbC9kikGkuaMe+CH9tXh20ntSeyoVzp7b/MeVI3+mWRy2TYGEBHTIwgG9hfnjxfdR4lQWq7zjxOViIGECwUP49ftyzqodgqjTpDcw94UlAG7Nwx0FhGLeZul+/ZKqRhISBBIQdr2gzDVn19SJYiw1rsSNwD7nuM6i4jSF3XpC3sxXdIXc+kLum6XSjGQNG7UA6usq8PrSO0L2VElSO4e726o0aCvts4iovQdRPouUkyX9N1D+g6i26VSDCSOewhesS0PU2sMS5cgD3kT4ABtfgKno4hYjNssXbdXNMRAUoYkIWm7OEztdwLUCCKs9V2KG/DPSfOgYqejiNi/zwoZAx84MR7fEgeA51idtlcUxUDSNYN60GXW1SEqDWKpESR3j/fPUANfJU2Cmp1OIqKkqEvKejFcknIuKeiaX5TFQOL4h+Al2/IwlR7v9AjykHcEHKPn3ml/vQ4AOW2nFQWA7lBxqOqNPgEsWodqAwA2D/sLFzoJcdvFYSptHKgQJLe2eRE0oK2FI2dkoZOI2PueFXIpRjlRcmsrA6ifqcP2ipEYSAqL0AXnll4b3khqn8+ODkE2+DZDLV6iNhhV43UQEZMRBEMfG3ubVXOECI4qjbdXDMVA0jWC+2GHfWW4hdSeKUGEu5tvw/Xo39UGo3q8xiJiMWyzNN9esRYDCRcJ7sZ32q/puJ7QPK8ZlTsIXtN8vNCE/q42GCrjNRYRpQOupYOujXhJB1JLB1NrdmkkBpLkI34knFByw7vST1xVXVQIIkVAfP6VqnAJBmssIkqv4Uqv4xrxkl6rlV6v1ezSSgwskBDN87KoESR7t/cWVA/UX1hRVFwNRUQxB9Ad1voRERkqjV4BLNLTJC0uLcXAAvngXrjVfnX4FhppUyOIFEx2rbcVNcBKGoGp9qGhiCgRRCKKkS6JGBJBNLl0EAPz5YV7YJ19dXgVrbypEuQASZqvRZVwMzgQNblfcbIhAIgoHk08MD6EINJlrG1WVZMIrhoNtldSt0AfMVTsDJM4gaNwq311xxqak1AniBRc6o7mmdZy1IaqSU5YpZnOJL40EBGFLEBPh7G2WQ3NAljpvtN5OLh6ioHjosERaLfFMnPRDe9TP4KUCUHGYs+ta/4N1KDzic/mZcEVjUTE7qAVRAO8rCdBaLEANPo12F7pLAaCAFgchMdKVoUvZLF0JJ9MCSJNkFvrvRCVw3rsglpWSRT0q4GIGB9AEOkxxjarqkEEl5vx9kpnMRDFYcASw8vRNR2PF6y/CgPmBBmLLbvB+zdUCyepiFXdUMYiopG2Wcy3V3qLgcNot21Z6EvqFgTZaM0IMvoFvrV5PapEV0CpygPlyHI73IqxiGiUblRMu0bpKQZmIIsjcI99VXi10iUgd5ymBBklyZ3e01E5PAqVcITcYFXbMxYRjdBbnXnPc53EQBRD+y0JfAFaHf6L6nUgw4HmBBn3Bf458KAzZMRKx5ShiGiE3upMe57rJQYOQpttRfhMOgtAnhfdCDJ6N1njvRFVwY/AqdFrumPYMBQR9d5mMdte6SEGJiGOYnCT9eow+4NA8vBGV4JIMeE7jjkmV17yHKoGrzxuq7RmJCLq2VudWc9zHcRAFIG3LaL4TbR8r/TnTLdLd4Ic3HK1ep+AWjhHU82EgYioZ291Jj3PtRYDBcAwBL+2rQx/RzdWjJvYMASRYsrd5fsuVOBWcEG1JuAwEhH12mYx2V5pKQbGod+aQFegVaFNmtSfYBJDEeTg3WS991VwwwkE8as3YSAi6tFbnUnPcy3FwGH4q21Z+CvqC0rXgyEJMno3udt7L1Thy6AUsf+RE2URUY/e6tR7nmslBmYgi6Ko1boypPrtP7rUOODNsAQZ/QJ/16zTBKflcaiEJhbJH+LzfwAgQWkWHXqrU+15Lv0O+7OUsJjKTQw+yMQt5zmvCe7WYDZFUxiaIAe3XOu8vwcPfENRhqSDKIuIWvZWp97zXAsxcBDvtK3oOIu0PHrZFQVBJHCEu3z/jqvwjeAAqqd3HwI8RRFRy97qVHuesxYDJW1jBP3Quiq0Qa9FL2feoiGIlFT83iNnlEHZC7gaMWscD5RERC2bflJryslYDEQReCuJMmeUX/F+t5xFqqdtURFkDKjs3d5NqBaWMvvJIyURUYve6tR6nrMUAyVtI4Iesa0IfV/Pxa5k7qIkyOgX+DXei4QKuAfKQSot/YuCiKhFb3UqPc8ZioEoAX14BF9mu7pDv5M3VayOoiXIWM7Cet8e7Mb0T4GlICJqsc2isr1iJQYOw0u2ZXQOkVaxxlUNLXqCSNnn7vLdD7X4YigBupoJBRGRZW91Kj3PWYiBacjhGNxlXxm+UdXqNMDgaUEQCcfsGt+XkQtvgUpopIrrPgDoU+4xHUcw8AGbV3HdR4tQ6lLxam0dAByrPLfJRqIY7LMI6Gy0LPQaXc/6eJs2BDn4Bb7V+0dUB1+jCqcKEZFlNypVXaNYiIFDsMO2XP2B0VRrp9LZtCPIgbvJ6HsmN4GTUrddlSLi4IdWSMVUVmrC8LIKgNojVZxcQlMMTKKEOIKvK1kVvo9ulvp7m5YEGX3K9aDXI2bgFVwNn6YCswoRkUVvdVU9zymKgSgCb1oqLKejbwcHqOBsMCfTliAHt1xrvVuRGxZR0UwUiogstlmKt1e0xEDpqNUIPGy7KnyxwdY01XCmPUFGn3KtbT4PXOgBKAepa566S6GISLO3uuKe57TEwDgMQBp937Yi9JQ6MI0/2hQEGSuDsN77d+wGafet7pI6oWTluaDZW11Rz3PpGNJ/khfzZNZ4GL1oXxY6Tb2n4vBgKoJIJRHu9t6Dq0A6m0v5s1cFIiLNbZai7ZVaMTANAorj260rOm4qjqVNJ0rTEWT0C/x674mCDXZBFdQrhrEXAGQelUyjt7qinufHAKjIFCCG94sYFpRc0fGGYryKdKApCTJWq9y65hfAg05VXDuZIiKN3uqye56rFAPxEGyzLw8vVoxRkQ80NUFGt1ytzddgF/oJOKFEUS1liIg0mn7KasqpRgxMQBKl8Crrio4HFOEyTQaZniCjW67HPlcjDqT34BoFP7yQKSL2vmsF6WggJZetFEA62of4UigGSu9tWGpKT0UXvCWpP6a+OEHGlT/X6t0INXC2bM1EhoiYiCAYVthbvfoIEZykPc+ViIGSthHFD9hWdFxmalaMS54TZMJKyK2btQSVWX6Jy6FC1iIhFBHVbLOIt1dKxMARGIKs9ULb8vY2WXlPc2NOkDwFzq73vonc8HlZ9Q8DwHDhEUp6qxP3PJeO3JN5iCsehj/bl4WVP6wonHLRWnCCTFE6odXbiithhSzNhEBEVNJbnajnuVwxMA0ijsNt9hXhW4t2BTMOnBOkAMCZnzUfb8Hod1AF0gPTwheBiCjkAHpk9lZv8ApgLdTzXI4YGIWPrBbrHHRZu/Qcjl95EOAEIVwa2XXePyAPfJ3InEBElNNbnajnuRwxcAi22UysbRDV8BMjThAZaGVavSstLrgTnFC4wXIBEVFOb/WCPc9JxcAEpCEFV9pWhH8hI21Tm3KCyCy/pJkIA+nXoQakv9lTX1OIiHKafk7ZlJNQDMTD8I6ttvQrXNsoVLRDP+cEkYfXQetcq+8xqMHnT6mZFBARu4JWkH7EONWFLADSjxPzXoXEQEnbiOGf25Z3XK4wVVMP4wRRUf7cBt8CsOPHoAJced1MISKS9Fafsud5ITFwBCK5DDq3bEXotyrSNPVQThAK5c9u8L6Oaqd42+JjAJD+TbhItll5t1dSj+Cp+gQbtN8GBbg1dcEJQgluodW3Blfi1VCap6VEHhGxUDeqSbtGTSUGpgGjBLrJujz0E0qpmdoNJwjF8sfum3WcAywvQBVI7WcOvyYREWP9CGK9k7+7VVEvQoVnwrlXU4mBUei02uB0dEk4SDEtU7viBGFQ/tw633PgwYf3gJ9ERJyqt/qkPc/ziYFD8JRteXghg3RM7ZIThFH5hVbvldgJ68A14TnXJCJivm3WYdurycTAJGQgjS61LQs9wigVU7vlBGFY/lHNZDD9GlTDzEOmmSAiRnsRjPQfus0q94hQWT9uezWJGIiGIWipLf0S1zbYFZEThB22Bz0L67yP4mq46JB7ydtSR6ADJtk0QN+7h567XfdpAeyln7iQHiJLW6uxyyRnUmlQmoJTcIIUhIiOQW6Ddy7YYdNBzWSCiDhxm3XI9mq8GDgCUYzxYvvlHc/TiYx7mQoBThCN10dufA946d0R6fGv9CJfD4KRgQPbrEN6nkvvdkiPdaVXg4fgFfvy8Mkah2zq6ThBdCh/dp33dlQBN4werf2JiDi+t/rBnudjYmAaAI/AbfarwjfrEK6pp+QE0an8qUdmNtvitr+Mns0l3UWGADrbD3wPGe15XvPJm4FR6M5VCl8tu/DdvTqFauppOUF0Ln9uvfcZcMMc+DtAZP+BLVbVUeKBY0IHoc22InymziGaenpOEAOUX1jffAl2WO7LvopH3xm0nwg5MQmXl1wVftgA4Zk6BE4Qg5Rf0kxyPenRr+y2hlIv1zaMURhOEGPUYTQK4b+aR3ttWC/seMhAYZk6FE4Qg5Q/85h/dskFwT1SOOP/b5DwTBsGJ4hpS88TJ0GAE4QEJW5jWgQ4QUxbep44CQKcICQocRvTIsAJYtrS88RJEOAEIUGJ25gWAU4Q05aeJ06CACcICUrcxrQIcIKYtvQ8cRIEOEFIUOI2pkWAE8S0peeJkyDACUKCErcxLQKcIKYtPU+cBAFOEBKUuI1pEeAEMW3peeIkCHCCkKDEbUyLACeIaUvPEydBgBOEBCVuY1oEOEFMW3qeOAkCnCAkKHEb0yLACWLa0vPESRDgBCFBiduYFoH/BeLqSFBcRtRKAAAAAElFTkSuQmCC;" vertex="1" parent="1">
          <mxGeometry x="567.5" y="640" width="40" height="40" as="geometry" />
        </mxCell>
        <mxCell id="EB9Ou6GKdFQ_Ul-n4hss-17" value="" style="shape=image;verticalLabelPosition=bottom;labelBackgroundColor=default;verticalAlign=top;aspect=fixed;imageAspect=0;image=data:image/png,iVBORw0KGgoAAAANSUhEUgAAAMgAAADICAYAAACtWK6eAAAAAXNSR0IArs4c6QAAIABJREFUeF7tXQl4lNXVPuebScjCJiiyCJlJAjOJQKWyaa2iVpQqSkBEbd0LLVAFt5+AoGyWpYjUBVfUUq0VFIK7Vou1ViCKVhQzCWRmgoAIggghQJL5zp8zmYmTYb5t9knufZ48LnPvuee+977fXc655yKIJBAQCCgigAIbgYBAQBkBQRAxOgQCKggIgojhIRAQBBFjQCAQHgJiBgkPN1GqlSAgCNJKOlo0MzwEBEHCw02UaiUICIK0ko4WzQwPAUGQ8HATpVoJAoIgraSjRTPDQ0AQJDzcRKkoInD44fxhLM4kUWXW5Mpvoig6YlGCIBFDKAREgkD1o/krAOlmvwwEeg0Qnsye6Hw9ErnRKisIEi0khRzDCFQvz3sbAC4OVZAAr2o3aftqw0KjXEAQJMqACnH6EKhenr8JgAar5U4GkgiC6OtPkSuKCFQvzysHgD66RJI0oO3kbf/TlTcGmQRBYgCqEKmMQPXyvL0AcIp+jHBZ20nbb9efP7o5BUGii6eQpoJA9fK8OgAwGwTpYNtJlScZLBO17IIgUYNSCFJD4PCjuWWIaA8HJQT4ffakyifDKRtpGUGQSBEU5TURqF6e91cAuF4zo3KGJW0nVd4dQfmwiwqChA2dKKgHgerH8m8HoqV68irlIYKn2k2unBCJjHDLCoKEi5wop4nAoUdyL5MkfE0zo0YGIljVbnLluEjlhFNeECQc1EQZTQQOL80/vfaY/FV6ewSUNLNrZXin7aTKS7QyxeJ3QZBYoNrKZe6dXdiW6o9tJQ/0MmcBZHQ+cZh9bn8EBjj+qAspBHwle9L2K3VljnImQZAoA9raxREA7i3OfYMQRvixyOyCYGrzEzIH2g+CtPpD0K6G7YV6Ei1oO8k5Q0/OaOcRBIk2oq1c3rfTc+cgwL2BMEhmgKxujUOtNq0zfN/xF9B936u6kZIJbmo/ufI53QWimFEQJIpgtnZR387IG4FEb4bCIeNkBFO2GTbbn4CBX9+iCRXVA1B94/A0Z8HZWX/YvkGzUAwyCILEANTWKPK7u/PzwEwOAgppKU9rB3DklzN2Z+x4o3vWj1vATwDZSwQA8qDv/wHJ9dhsXGb0lE5u/0fH/kTgKgiSCNRbWJ00e5h5z9FvKlGiXlRnAvAgAI8sk0xolr1jzFN40Xd1p/x8f/Z/HsgBGTJJBl1nWwTw/qmLKn6VKMgEQRKFfAuqd8+0/BVUZ7pePmYyAzUfUlJWHUDbNlAzbNbBdu/M6ghExlpOMKPL4ooFxgpFL7cgSPSwbJWSdk2xXY4A/6Bac2YoANAsw/Hhk/ZnON7qbPp+u2GMPARDui2uKDVcMEoFBEGiBGRrFLN7ckEOydJXANBWqf3mIZeTNODXR+oen9DWazA0EaCJDknp1F4HZuVdFlWE5eCoQ7auLIIgumASmUIhUHVjwUoivBgRuvCegwkgmZtbzrPue6fu+MrpaZ7tm5uJkNIJpAwPocm7WwmZCGneqQu3NTsyjndPCILEG/EWUp/rOvuNAPhsyGWVCSAtQ4I2f3jsmOz+AuvefCzATNi8BJoJTBnyj5hGHYJlyR7M7bqk3JVIyARBEol+itbtvq5vAYHnMwDIUGpC5tkXQ/oF1x889tjkjlTzo2ZLpQwZTJlyYL5Huyyq0OeLoik9/AyCIOFj12pLOn9b+BEi/SIUAOY2jUus7HvWHa9989E29Z+/qxunQJKYQO7bedH2rboLxyijIEiMgG2pYivH2W6S0qXl3tlDBiICRIQjIEEWACCaALKvnALYsdv+4yund64/IoGURsBLKT1evWgikNLlyq5/Kc9PBgwFQZKhF1JEh69HF3RLIywDgA482ClgReTdoLeBmvTCM9Kyb7yfji2fmF6/5xtggpjSCNgsKNehlyymNnKjIVFxcy6ffdoTjoS4lgSrJAiSIoMzGdSsKCp8DwEuVNPlpGnLfvBs22SueW1VO3YfCZUkE9WbsmQzn2SdMCAJXu7+1Ndjk6G9rIMgSLL0RJLrUTGq8EZECHlq5Ve9zaALoN3EeXC4eGxN/fd7ecmlmnwnWGBq4ycKejwe+YxeK8rYtpIUSRAkKbohuZVwXG5rZzKZnABwspqmHe558pi8y7m3ZuWSXkZa1KZzfWN2okU9niorNlI21nkFQWKNcAuQ7xjW/2nywC3sY4ttCKQsj3dPEZgyzr0cMkf8pubw/AlZdPRI8x95glAYaTyLpHfwcP6tsgfP7bli64FkgkwQJJl6Iwl12TrwZwMkCT9t3GY3poYLUbLU3iNJ7bwDGzAtHTrM+eux42887zn+0TvZwISQGi3r8jH0buZNWQpOigiQ3rEe0ITX9nhi64vJBoEgSLL1SJLp8/npA9cTwbCMtr5lUIB+aCYydarHrJHXQObF1x7aP76omX8VmugwebCdl0RmAN6U8z+DkzlT/rDX81+dl2RN938MklEtoVMyILDJOvRWInqIdcnqWAfm9GaWbq+K5h4d6zotfVo++u8PsGblw2Y0qd/zQBPUmTIpzZ9LypT3mTPrzzntKUdFMrQ5WAcxgyRjrySBTh+fdlYnySxvBIDeXiKky16SBKd2N97yQ9rpfbP2T7/T62/Fhj4TzxSS8r0PnkX8Sy4pHR6wvLjlriRockgVBEGStWcSrNcGy+D7EHB2oBqZ7eshLaNx3+FNkgSnrPzH8R/uv69N3bbmEUokdkJMJw8gmUI1hQmCZnw095UvEu5vpQa1IEiCB2IyVv9pz7Pz6k2eTQDQOVA/nhXada6VARsXSNmXF1HaGWfU/fCnOelKn19zOl+7bX7N0Gt1z4B389Z9EfJ1qWTCRBAkmXojSXTZaBmyDACmhFKHN+vpfMzLj3w8/dcjh1Y8kX3sE16JKSep0b9KRgkkXl5hlrxu76a2N5vMntuGuEubzVJJAkGTGoIgydYjCdbnv7mDBpllaWPgsW6gSjzY23auhaxfXXQg/dzzv/9h7kx9L0UhgCld3i3XSTuOHZCqPUelM9jwOMhVmtRjMKmVS/BYaZXVb8wZshIQrlNrfMfebY/1ePiRjJ23TjgkHzmieXWWnRTrj6LXcTEwEdDywa5PJicz0IIgydw7cdZto3XIcCB4R6vaXnOmHDBlmjP2PfJYRt2BwxLIjcZA7x8fXvn+W0sOIf1qsPOT97XyJfJ3QZBEop9kdW+yDn2NiC5TUyujTy7YSlbQjttm4qH3P4qgBVg6yLVpSAQC4lJUECQuMCd/JRstQ64GAE1Xj+4z/liXXdgbndfdZvStwebLK8QZg52bEhbvSm+PCILoRaqF59tgGfxfBDxbrZnp3U8F+2vP1e2e92DaD+s0V2KqiCGZCga6NziSHVZBkGTvoTjotzFnyCRAeFSrqq6Tb4SOF593fNsVNypGKdGS4f0dYfEgZ+k0XXkTnEkQJMEdkOjqN+YPaU/1sKkhOqJqgDZT+7ZQ8Obfju59fGXm/hfWRKJ2OaZ5zhlYsfn7SITEq6wgSLyQTtJ6NuUMvYeQ5mupd8oNY6HLDWOPV4y8vo1cc1Qru/LviLcMcm56JnwB8S0pCBJfvJOqtk9zzuxWj+ZPAaC7qmKSBAVvPX/k4No3s/c+8bew24AIJQOdpUVhC0hAQUGQBICeLFVusAyejYD3aenTecyl0H3axLptI29Iq9sb9sro4CBX6UladSXb74IgydYjcdJH9+zRcPZrW/NUdfXHn7bd88DjYWmHgLs9Ml1nNpt2nFm5wXiI97BqjU4hQZDo4JhyUvTOHh0vHgY5S2bK20bdLB13VkXUTiK6abD7k4S8NRiu4oIg4SKXwuWMzB55zy49Wv/NLvPO+5akRdJkRHxuoHPTTZHISERZQZBEoJ7gOvXOHu1+MQjyViyBynG/h5otHFAxvIQA7oGuUmt4pRNbShAksfjHvXaC2VKp5a1tBJCrVbnlwTl1KIFnx9R7FaO4a8kAgO8GuUq76siXlFkEQZKyW2Kn1AbL0HEI9A+tGrJ/Vgi9X3oMXLfcAdUf80mw8YQA7w50lSb9rUG1lgmCGO/3lC6x0TKEyTFOqxE9595FptN6Ha26ZUqWBCdGM9EqDwCrB7lKr9KRL6mzCIIkdfdEV7mthcPaVtcc+56AVH2pMvIsYF/3jPy/GU9K+15dfzwTjnrzt8FjkAHH9SmF+JYsU2myX6nVaowgiBZCLej3Ddah45HoSa0mdb97IrS75IKa9cPvyiLPT7NHZ9wP2RAUVlRFWKqeXAU2SRBEa7S0oN83Wobw7b0L1JpkPrULFL7xXO32Z99O3/bo2qasJvAc64G7DG3WZYJLhrhLI/OLTzD+giAJ7oB4Vb+q19jCk6X9W7MUZoA6SIcjlA3dJlzt6TNlLP77smnSEfeeJvUkkGtPw52hw/uEbsSKQa7S38WrfbGqRxAkVsgmmdxVOePuboggujgTaqADHoR0qG3SsBbawB7q5v3vC95aeORw+Y76z25/+IRXZ7Owpq49HEoLLKvUTAS4aqCrdHWSwWBYHUEQw5ClZoFVOVd/AEDeANESyJQN1ZiN1WAGj5cc9WCGbsMHwqCHb4XS3y2GfR9tUWxoOzgMbbEa0uDEUKT+Qukm7Pmz7Zt2piZaP2ktCJLqPahD/39Yxg2VCEK++YdAQL7HOwY+dGtdO0uXwx9eMaOTllgJSG4Hh6T2eAhYRrOE+NYg56Zfa8lIhd8FQVKhlyLU8aWcq+5HwBlqYtrbesKwV+fDV3Oeg6oX39NdYxs4Dp3wQLPZpKUsrxgEQRDdQyF1M67KGfcFAPRXa0HB7VeC5Zrza9ZfdGdW3SH9R7ksswP8CB3wR7/4Nwa5SlVDB6USkoIgqdRbYei6uue44SSpB4MzZaTDhe8sOvbd+s9rvprzrObyKlgNM9T/0B13N16GQrh2kLNUM3xQGE1JSBFBkITAHr9KX8q5aikC3q5WY8+ic2DAwvHw0ZhZ8ONWV1jK8SyShTWODFPNuT/f/vm+sIQkYSFBkCTslGiqtCrn6o8B6Cw1mUNX3HXMnJ52cMP18yPyujVT3Z+vqFr3f9HUP9GyBEES3QMxrH9V/thToE7aq1ZFh4IcOK9kLnw29WH49m1+EiS8hACbR7tfHhhe6eQtJQiSvH0TsWarcq4uAiDVIFb2qWOg5+VnH/jXhVMN7z0CFUSCMaOrXo4oYFbEDY6BAEGQGICaLCJfyhm3BAHuVNIHEeHC9Q8c2b3mw6PlD79ycrh6I8CLo90vXxtu+WQuJwiSzL0ToW5a+4/ulwyGM5dOlD+45C6p5hvVlZiiJgQgm2QcXLRj9eYI1U3K4oIgSdktkSu1oN/Ek/IOHTigJmnwY1Oq07MzDm+44U+NjlhhJARcONq9enoYRVOiiCBISnSTcSUfyp84tWvdgQeVSra1doXz31xAXxQ/gbte/a/xCrgE0XuZaTWX/Xr7WzpvUYVXTSJLCYIkEv0Y1r2s962vdKvdN/oEPylfnb3/MBLybxlR86/zp2bVHwkr1q4DZPnSMTvWOGPYjISLFgRJeBfERoFFfe78T9e6fedkyqE/7he+u/jggc/KpS3Tn9R8Y/AEDRGqEXHEaOfqSJ6Yik3DoyxVECTKgCaLuPm2aZUdPNW5p9adGEv31GE/gyFP3AGl4xfDvv8ou7UrtwWvHuNe/VKytDWWegiCxBLdBMleZPu/drUgHeLqc2p3Q0bQLHLmg5MOndTPCusvusPw7EGEd15ZtXppgpoW92oFQeIOeewrnGcvHgYE67mmDp7D9V3rvm96TzCzaye48N3FdZUrXk+reOgVA8qQG4DmjHGvSanYugYaGDKrIEikCCa4/Lw+00fNqlhQEqjGXHvxjUjwrP//Bc4iuTcMh74zfmPQMZGek8Azp8hd4k5wc+NevSBI3CGPboXz7cXXEEHurPKF9/slz+lTPFtCaHr3o53nyPHudXu9sa2Glcz7sb7maPqG38zL1NbkxFljQb/ik6Z/ufAH7bItI4cgSAvox3m24nUAcDgd5InTyhcfnm8rfpUARgY2rVftt9BzkBXOXlkMW+evBPfz76q1/FtCWGOi+iWBs8Zce/EElHHnrIoFb7YA2HQ1QRBEF0zJnWmevXg4ELwDCO8BmieBXP9B8LNqSHTs0lkjam2jBmZ/MPxO09Fv94doFL4JBGskrHulyF1y0J9hnn36ZUg0AQj2z6xYmHJPGETSe4IgkaCXRGXn2YqfB4DfAMAnADAolGrj35xypOZ/juzP7wx88ZnKeLYAGV65suqVz/3lvCdhiDci4QgCGMH/nwgG31uxkOW3miQI0kK6eq59+llI9LFSc3oM6AXXPnczvF78Crjf+OQQIZqOY7qHQJIAaAsBbAGgagQ8FQD4b3hzWXjzrPIFTRv/FgKbZjMEQTQhSp0M82zT/gaAvw2l8VkTzoUB4wZ7ll+4xGS0RYh490zHgiVGy7WE/IIgLaEXfW2Ya5t2FQKGtHD/9vnxR74r+zb7n/e/bqTFewBw5qzyBSuMFGpJeQVBWlJvAsA8W/EOAOgZ2KxufXvAb18YDy9c9zTs3qI32CGVmDzSPTO2L/i6hUFkqDmCIIbgSv7M8/oULwFsfotw6PhzDxWO6Nf+mdGBm3PFtuwBontnVSx6inPMtU+79l7Hor8nf8tjo6EgSGxwTZjUQDcTvxLXvTjBXfbml5ZP/xYy+uhPuhL8VQbwWssR4RQJwDqzfGGLCCEabocIgoSLXBKU81rMJfxUQtx8T9mfvmWVggnS/YyeZdc+e3PPJQPmtDWqstkMvadvXbjdaLmWlF8QJMV700cIdivpAwQ7AMECAE3xrQjh97YL7NkV7zsMeeByuXsdCzVfo0px+DTVFwTRhCg1MgT7XzVqTXs9x4/bTG0y+KmoYXpaggRPzqxY+Hs9eVtDHkGQFtDLc+3FZzbMHjcjwFgAOCVgU7HChNJiD1G5cjPpIBKWAOC/wCR9OLPs/qoWAEnUmiAIEjUo4y9oduHdXc31pjmEMCFk7SQXAUjnBJxqeQDgPwRUCoTbUILtsxwL2W9LJAUEBEFSdGjcb592sUw4jxB2IgCHJdmcTvJmD5q6yQSrCeRsW7nTVm7Lew8J3K3NyTBa3SoIEi0k4yhn9um3d5q99UHFmFfzbMU1CPTEzPJFt8/vM/06QloJJBfNqljc7GJVHFVO2aoSRpBtvXoV9t6xQ9FK+81pp2UeSUvrTUQnxIyVJcl5utPJFmPFtD0vL58Qf+y9fbvuUPzb8vNPq6+r63nc49lxxs6du0IJL7NYLAVut+bNulD5WKc6j+c0Nb0L3O6Iljz+Y16Z5F/dV7GYn32GubZpixDxvFmOhUNTdqQmSPGEEMRhzfkzAN4lI11W6Kx6I1Tby3NzJhGhiukX/2t3uc5RKPtrInwDgFbbXVVXqWFbnpMzQpZgBALe2iwfQSUBrCpwu5s9XeawWnYRwVMFbvdsNbnB+cryep2JsvSpVj8TwfmRkGSurfhRBDp7VvmiAYF1zbcVl9S3zbh29ubZNVo6iN9/QiDuBHHk5FhBwq8AYCcAbbK7qq5X+FLPRoT7iOCmYwAlA9xu7wUe31f4AkS4BwkO29zuvsHly3MtzxJ57QFDPVJ9v9Mrd4Y0djms1rEAtAoINssAz2cRvWSpqvq2LDe3D8ryNEC4GQietbvdN/vrcFgtRARzdBCkWb4yi2UYIqxHpMk2Z9XyWA3CebbivQT0xL3li2YF1jG7z50nS1Jazr2OhS0yhm6s8Iw7QcpzLcVEMJGAHkLAP6Wh1DfP6dwW3MAyi8VLELvLHVLHitycS2XC14MHKy9tEOErCWG8h+BuBFxjd7nmB8vnJZ7HJP0HCFbZ3e6JoQB25FomAsHywDoiJUikM4TaQPAvr5DkITMrFpcG551rm/6Le8sXhBlnNFZDMLnlxp8gVstnRPAStGmzHGuP7yXA+0MNYC2CMKwOq+VjQqgqcLqv+ekLb70bgGbZXe72ZRbLBJBgit3p7ocAcmBXOKzW5wGor6f6yDmn79tXrdRNPGPlV1Y2zUDJTJDG5RX0m1W+8NzkHnapo11cCVKek1NEEq6p9cid+u/Y8YPDYlkBiIPtLlc/ozMI5y+zWJYiQoHd5fZeCfWRphQBP7S5XHf5/vsoIP3O7qx6wZ/Hu4QiuZwIfl/gdhtyp0hmgvDyCoGWzCxftDh1hmByaxpfguRaXiTCA3aXa7JvgDeuywmutrndzS766JlByq2WDQD0qc1V5d1gl+fmeDfnhJKtwOms8NZhtS6RQLbZXFVNUT4qci3XyAR/V1q+qXUZEwQBH/ATUClvMJF+2oPAHTanWzHqerjDpenKrSwXztq2uCxcOaJccwTiRhDfmv8rJCi0ud0OvxrlVus/AemwzekeHaiaFkH8G2wJpZF9nE7vNTn/5tzucp/vl1XRq1eubJIqSaazC6qqvP7eWrK1CAIA/JC4YvACAjoNAfMD9y5+gvhks+uH1/s2MPGBhJ4j5FD68fIKgKz3li9q1e7p0SZ43AhSlmuZgwSDA5dD3JiKXMtNMsEzskxnFlZVfda0DPJt0nnQmCTa5wHogIAdEKADERUC4HXAs4DbzZE8eNA3bc77ON3N3ul2WCxvAMJ2u8s9JZAgaSh1zHM6fzQCKs8MDY5/HzRstv+tVA4R8wHoNyEJgvAWyXDCBpplaZ2MqenJy6uGuCP3zSpf9JiR9oi86gjEhSAEYCq3Wnj28MgAfwxUCRFPAaAHAOFFu9M9LZggodWn1YDwtt1Z9Yz/d4fVuzlfzIQC36Uf/28SwCOE0CUdsF+uy/Wd38YSOPvoHSiR7kEQ6VKbsyqqgdfu7z3jDNkk/xfrau0zK5d+o7ctIp82AnEhSFluzrVI+AKy8Q0huAPZUt4fAKo6ZWb17fL1194TJf8ySO+xqMNq4a8yx4M6wRKNBD0JIQ8Ibre73cu25eefInvqdxDQw3ZXlaF3vSMliN72aHfdTznm9il+GJG6zCpfNM5IOZFXG4G4EMRhtZQA0CElo2CF1XqrDPSQDDS+0FX1dCBB9Gyk/ZtzALzK7nKtDtVshzVnJQL2sbncXneLRms+XFLroSv679ih+ErS5xZLxwyAM/zW7WQkiM84eMe95Ys4eJxIUUQg5gTxu1jIgMMLXa5/KunusFreJiBTgavqIuME8VrOO9ld7iuU5H9ttZ4rAf0bAK+wu1yvNpKkcT9hMpkv6b19+wlPMfmIx0GhD/o3/slGkNl9pttNKP+bL0bNdi9rChcaxTHSqkXFnCCOXMsiIriowOX+uRrS/mWYBHheH5frQ70nTf7NOSDdFrgnCVVXmdXyjoSw3+Z0e9/0LsvJOQslfI/vSCDQh5KHSiA9/ZDH4+EohYWEwP5W75ol0+/yKyu9S8MoEIRPqqL2xsY8W/FiAOo0q3zR71r1SI5R42NKkPLc3EFEcoke5z7fsoePTl3sYKiXIA5rzmIAHItptYNsFbtPfG8sADhHruUmIHjG5JFPD/QkLsu1vMi2mCCMdwPQ3+2uqrsD/38cnBUNGS+9p1ckTxCu7LFhSEwJ4lsqDdPrncq2knpJ6uLP787J6cbOg2pNDy6jBRPbIzhPsE48E0kSFcoyDgaid/w2k2B5sXZ35xM4vbaQ+QX35JBc/z5fjLoKVvNtQZGijEDMCRJlfYW4AATm2YrnAoBlVvnCkB7RAqzIERAEiRzDhEm4ptftH5+alrZ4WaW4KRirThAEiRWyMZY7uscdQwnkf5k7dOy4+uvZtTGurtWKFwRJ0a4ffdpUPh3MX7tr2ZgUbUJKqC0IkhLddKKSo3pM5fhV95XsWha1I+NUhOKKK64YiYh3+nVHxMeJiP3rphHRrevWrfty5MiRJ5tMpscR8em1a9e+baSdMSXIl9aCxYTEwcz4+muIRAeBcFV/lyMwkh87H/INQIUyJ4j5HwCwB6vqaZcOUPIaDrfY5f5MHXk5y1YA4ItJitFFdMoxnK2o5219QZa2ANSdsnbXo6EeGzQsM1ULFBUVdSEiDr06iYhuSE9Pf7e2tvYGRFwIAEtLSkruHDVqFF8/5gONB0pKSrz3hPSmmBJkS559HRBcrqVMf6cjUA82zjU9YaxV1vf7nIZ/qgZR0CGHA0RM0pEvMEs06jVYJUBRj6n3AMCItbuWhQxaYVhgihcYM2ZMb4/HUyHLctdXX331u6KiomIiWsDO4iUlJbZRo0bxPfw0NvomF0Gs9vWA2jFho0CQDwHgvAj6mSOfVwJAF4MyEkWQzQTwcsmuZTwIWn3yEyQtLa3b6tWr94waNWo6APwKAM5CRPYev4OI3YzgGM8oRgCL7QwSP4Jwm/N9g9xI+/15RwEAB3g2muJOkNE5U7tRPewGSe639puHODpMqMSBGc4O8UPc9TUKaDj5R40axcvj7Yh46tq1a/fyDMK2YFmWjyMi24gWc3w1RGSCJNESK74EGQ8AXk/gMNLDEHRPRaeMuA+4ou5TJwPClLW7lvVR0PEMAGh6zjkoD18FaLptqbONSZ9t5MiRVpPJ5ExLS2u3evXq6qKioslEdCoivk9E64moLyKOJ6JD69atM7R8b0kzCD8T5r1dGEbiCI8FYZSLP0F6TH234Uv52JqdDyrNeFMBQOnOe4skiFq/XXbZZT1ef/31kFEy9fR3SyIIn2JxWM9m4X10gPBLAOA9TDgp/gTpeVtflaUVt4G9ky9UaMxGXpeH09DWWqYlEYT7kI973zLYmeGcmvmriDtBNNo2uOF0a5NKnj0A0M0gPq06e0sjCN8SNHSFlu+CNHx1wz0uTTaC/K1hs/pbjRHNJ3W6A3q3anbwY6axBGBLfDfp3BQODs330vWmQp/BT2/+4HxGCcKhjfh0id8Q7OF7z5yXhbw85H0QGx/XQeN7H0YTG2RX6Si0xjfLcLTIQCMn/zuHgD2qQwZn4Y/KH7xvIwK0D/jjW5pbfO35wtcevYEkblQwEH+2qsHvAAAMT0lEQVTMNowQevHVBf4gDPTh2a4x5jPs5pOrhv/vDQcVSWppBGEseLPdFHdLAxwOOPdQBADqIUhHXyfyAYLe5wfYJsOdyyF8VJ5Pa9JcLzm0mspHoA+oZMpuIDN7PXDE/CFawny/czR5vuLMEWgUr1w3HNFfBwArFWQyefn0jYnH6aQGQvA77mp+aHr6RrMJLZEgfIrzF82WN2bgB2UU77HrkKHVCUwKNub11CErVBa+IcnLRqVQojz73AEAt4cpP7iYWnt4ZmbC6nXFCaXSI762hJpRtPaC3E4+neNnHT5qkJOl0WatvtEFWUskCC9R2PCnlU71GRb5qxhuUusEjhgfrWcOOFJL8DsnHI+YZz82kEYrKbWHlz7PRqkSngUu9S2FAkVqEYQx4NmNT+L0JEEQBZQOAUBnAKjXQJEDNzQFtNaDeIg8Sp3ABwWLwpSpVCyYJDxgeeBGM4VqDwfiawrQF6XK/uWbuQOj6msRhPcWbM/Qu7Rr1QThzajay1HsIPmaRmdyp3PnKyU2qmm9LR6qE3jjGqvwnyzX71C5Xod+RsdzcHt4Cad3g220rpcbDiV47+RPWgQxKr9VE+RKAGCAlRJ75jYLcRqU0exbXvVSEOAPLm2UIJkNthiO8HjCq1dGe1ch/+EGn7GfceSXBufMeBCEP0SBgzhKzWgSwxH3/SdNgiBK6IbhzcvHiryUUkoc/p+PcJXSxQ0nSmoXZ/hdwuE6vtDBXyk+BeJNtVbiIHW84XzHl5GPSpnQJ7yTEkIQ323g+zK8hDNq89HSi5+l8O+bjAxY9p7lkzdO7DjIHzA9m3me5f3XIYzUp9UO/r1VzyB85MfHfGob1NN9Z/GhwORBrObVyTYK3p8YmUFO8dkXrBq9x7YO9jBtimQfkF/JCzdQJM9uPIsERoLky2V8ssN6qyV+M4XtBuwFzIcT7Obv/yfbPwLtILyZ1kNYbneoeGS8HOTlplbyzyKCIEpIhTGDMEF4FmC3ZqWkdqbPg7PZK7ABQjh8J5+z61nCBH6l2EtU69IWk4P3TkrPX/PSjA1iWu4gbHAMdlbUoy97Deh5no2/6nwaqJX4eHmZQiYmH5OWyayWuDzLCYcgLH9FcDR/X2URPaftVzhVj3mZILweV3tWmY1SvEwKTmx1VXz8xgc4h/HUM+ACCcLGsKZXrBRGBC+r+DxfLfHgf0UjT6jlgx59+QGhUPdEgqvje+43aOjAV52VPjL+ohMayP6Ehhy2RRWFQRB+l/IfWgyO9PdUJgh/IditQSnxMS8vH4JD4vCso3YTj7+w/KXVM+ACByofQXbX6BA+Wm72uE+I/GyfYadCtcSzR7MXuXTqq9cVhz0RbBo6+L/8WmNQrY+4rJ9oRmYQtZlLSx9Dv6c6QfghmqYHPEO0nL9M/IUKTDyz8HXMUIk7U/L9YIQgvMnW4xLChNKa+nndr+X+whvi4P2XHn31fPX5JI7dQ7QSb7CXamTS0xb/klYvQXjWaHrVWEvJSH9PdYLc7FsSKeHAL9gGRkzhDTQPLqV2By7L9Aw4/wzCHcYXtuKZgtugR1/eA2kdQfNjRuxkGM/UpmGm55NDPbf9Ak/aYq5jqhNEy5DFsaMCwwfxtVy1Z5/ZcOiPM6VnwPkJMq/Bcj8z5r3VvIJwCMKnWFpLJ75T80ac23IyALDjqB6C8AU33pzHJaU6QRgkdm1WO/Xhad4f3ICnZ7Vnynh55V8zGyEIO0feFpce+6mScAjCL2mxnUItqXnVxqqJPLOz24wegvCd+7jNcC2BILxe976TrpDYmMZ2DzYu8gBhP61QiS3ggX4+RggSC78orcEYDkHYbUTJe8BfH2+AtfYWWroZ/Z2Xdey6rocgTHDFJ/OMVqyVvyUQ5BKNa7b+QAVax6dsnWYrtT8ZIQhfQuIDgXimcAii58otB6VjLOKZ+OiZ7Vp6CKJkmIyJvi2BIGyQYpuIWuK7A0s0Iif25thKYRJELVBCLDqO9WR9A5MeQrPFmweYWuJDjcdjobSKTN4X8RG4HoJkBHkRxFTVlkAQBoij5qlZiPn+Ae8TlFxT+IjWHsaA82/S2RjGRjGtxDPNl1qZdPzOBwnuMPTloM58w1Et8VJHzRHUX5ZnZm4/n0DxoPX/Bf+3/9hcqU6Ww396j3ljOmaDlYxpZTG8k86W9EB7gpaTIC8b+LVapcQ33YL3MXq+yH6C6LEYc93Beuvggu4sevRl+4bWBTH2P2NZWikqzoABlQiCKCEepi9WIEH4rje7USglPu7NUfmd17/BQQH0DDj/IGHPVTW3F3/V0R5UgU1i72Ruh1pirwL+wqslDvJ8xBfsWS1ftIPQCYLEkCAsmpcPfFJlNCltXI0QhOvk9b3SCZlfJz2GOqP6+/PrubsR6CmgVs/7DcH0LtChCN9T1/Nh0CFKLLEUQYrCDMKy9TjYhdKBY0mFegTTKEH44g/vdbRSuLMIf/nZnZ3tPsdCVMJxiW/RqlxnqCe9X3N29dHT5lBqsZGX7+z4Z269dcZ0WxCsaEwri+MehNvFHrh8R8RoYq/VUOFmjBKE71kw2fQkpTpDleXjY468cplvhlIKa8S2Cz3RTULtg9j/ym8D4qUTH1jwYQLfvNRKTBAmip7EhGBLPYdG/YXvTo7fs0EQRAnBKM0gfFSoNx6WXxW+JMRuDqGc84wShAcTD6rg0zClZvNMws6DPCB5b8DH1Rz4zP/HrvNs9Q827Clt9PUOMNaH6+bEMxKf7PkvhgXOCHqiNPrbxu75PBNwMAY2RnIbeLnrbwsTgu+Y/DwIjMDZVK/+Mf2ot+QZhNvGLwkFd4Lal43vcCjFxTJKEK5Hbyfr+doq5VEiSDR8qAI33jwzRByZUKOhgiAxemFKaZDwHYUpBkYf+0/x2yChUjgEYTl8V0NPXC4DajbLqtR2dsrkYA6RpOCTqViELwrUTxAkzgTRa+Tyd5JamNJwCdKpwaYSy4c11Wwpz0fwRgpjEurolkmn90FVo+QUBIkzQfg2Ht/sM+noKba+qwVlCJcgXDVf6+W7JVpWax1qnpBFjSC8CebbkEzScJKSbYPdy3lTHe3UygmSa2c3c44uopqitEn316HXL8ofPkdJt0gIwjL5mQF2QYn2cosPI/heh1KKJBKimvGPl1scmijcOMOh9A28f6N3/9ZyNulf5Nr3orZz3I7+TkeglVsPUGpfUT3lubM44ACfIsWKIH65fDzLrihaAR20viNMWH4JSytyCsvx385L1xIa9Dvvx9TutfDMxDYj/tMK2KBUtccXbIEfOgoM/aq331oOQbbk2rUu7DOI7/Z3OgJdJDgiOrtbK617eenCew01D161JQGfdPHpjNZA4985zKeS9ytbxdlBMvCNDbXxyBFW2CWFX4HipZ3W8muHL0ojh9/hLzvHpjWSeH/FthkmKN+3UEq8X+L75f4QOnrr4H5iooSKHBNKBh8Ds72JiREKM55p2Sai5m0cbfcWzbbGjI1fWm39CVHz5hcC/qWfs4yfLGhtiW/GsR2iQ8Afu8uwLYX/+N+jldhBkfcnbL3mfRo/4MN9w8Hh/BERw62LZxWWx7c6+Y/r4KDU/CgQW/39/wyOLhNufXEtFzuC5NmeIkK2bqsmBJrYz1ke7/sHWmqJ3wUCXgRiQpAtVttYQNTzHBh4ZDh/gNuhFQpHdJdAICEIGCbIljz7jUB88ws9ALSFfnoWC5CgG6B3Tar33Nzd3+nQimWbEGBEpQKBsGaQL3Lts1Hf1UhNhFvx/kMTG5EhORAwPINEkSB7TGj65emVWwPvgScHKkILgYAPgYQRBBFu61fpUPKDEh0kEEgKBBJCELG0Soq+F0roQCARBHmhv9PBBiyRBAJJj0A8CbIdER4Sy6qkHxNCwQAEDBPkf9aC6ySkUFdUlYDdSgAvm2tND52+c6tetwzRSQKBpEDAMEFY6y9zbTcTQB9EzALCbCA5GxCzZIBsBDoEiPsIYJ/sgX8KI2BS9LNQIkwEwiJImHWJYgKBlENAECTlukwoHE8EBEHiibaoK+UQEARJuS4TCscTAUGQeKIt6ko5BARBUq7LhMLxREAQJJ5oi7pSDgFBkJTrMqFwPBEQBIkn2qKulENAECTlukwoHE8EBEHiibaoK+UQEARJuS4TCscTAUGQeKIt6ko5BARBUq7LhMLxREAQJJ5oi7pSDgFBkJTrMqFwPBEQBIkn2qKulEPg/wH1PKebJuLz6wAAAABJRU5ErkJggg==;" vertex="1" parent="1">
          <mxGeometry x="330" y="620" width="70" height="70" as="geometry" />
        </mxCell>
        <mxCell id="EB9Ou6GKdFQ_Ul-n4hss-18" value="拉起Jmeter脚本执行任务" style="text;html=1;strokeColor=none;fillColor=none;align=left;verticalAlign=middle;whiteSpace=wrap;rounded=0;" vertex="1" parent="1">
          <mxGeometry x="410" y="640" width="80" height="40" as="geometry" />
        </mxCell>
        <mxCell id="EB9Ou6GKdFQ_Ul-n4hss-23" style="edgeStyle=orthogonalEdgeStyle;rounded=0;orthogonalLoop=1;jettySize=auto;html=1;fontColor=#000000;" edge="1" parent="1">
          <mxGeometry relative="1" as="geometry">
            <mxPoint x="365" y="490" as="targetPoint" />
            <mxPoint x="365" y="440" as="sourcePoint" />
          </mxGeometry>
        </mxCell>
        <mxCell id="EB9Ou6GKdFQ_Ul-n4hss-20" value="" style="shape=image;verticalLabelPosition=bottom;labelBackgroundColor=default;verticalAlign=top;aspect=fixed;imageAspect=0;image=data:image/png,iVBORw0KGgoAAAANSUhEUgAAAMgAAADICAYAAACtWK6eAAAAAXNSR0IArs4c6QAAHfVJREFUeF7tnQnUdlVVx7elJqWStDKNnMsBsjQtlRSnlLDAqKgUp8DE1MzUxIo0TRyyshxQHNIUtRRnLDGUxAkrU7JyRHNI08wcC0wX3d/6zl1c7vc+9+x9hvvcc5+913rWB+s94z7nf885e7yMODkHnAMbOXAZ541zwDmwmQMOEN8dzoEJDjhAfHs4BxwgvgecA2kc8BMkjW9ea0c44ADZkYX2aaZxwAGSxjevtSMccIDsyEL7NNM44ABJ45vX2hEOOEB2ZKF9mmkccICk8c1r7QgHHCA7stA+zTQOOEDS+Oa1doQDDpDtL/TtROT7ReQHwr+syUcHv78VkQu3P8zdHIEDZDvrfpyIHBl+BymG8HIRebOIvEZEPqMo70UKccABUoiRymbuJyL8bqYsPy72aRF5joic5kBJ5KCxmgPEyLDE4oeIyAszgLEXUB4tIs9NHI9XU3LAAaJkVEYxwPFOEblyRhubqj6m+8PvVWjXmwwccIDU3Qq3EZFz63YhDpKKDHaA1GMukqkP12v+Ui3fSUTOnqmvnerGAVJnua8oIueJyKF1mt+z1R8VkX+Ysb+d6MoBUmeZeTyfUKfpja2+R0QOc51JWa47QMryk9buIiKvT2z2AhH5pohcP7H+ySJySmJdr7YHBxwg5bfFm7qH+R0MzfLIPj9cyXol4FU7kHFl4oc4V0tfDKfI+7UVvNw0BxwgZXfIL4nIS5VN/peIHBVEwFNV7iEizxQR3jUaepqIPFhT0MvEOeAAifPIUoKNfH9FhX9MUBq+Q0RupWj7I8GuS1HUi8Q44ACJccj298+JyHdHqnwjnAYX2ZqWy4rI10Tk8op6t+zsvN6lKOdFIhxwgJTbIljlnqNojhMGW6oU+ikROVNR0ZWHCiZpijhANFzSlflZEXlFpOgZInKsrrmNpV7ZPeqPibTh75BMJvfVHSCFGCki9w2WtlMtPlJEnpTZJbZXMcnWi0WEx71TJgccIJkMHFR/hGLz3zH4deT0qtGz/HXQx+T043VFxAFSbhtoAIJF71cyuzxQRNB3TNFfiQjvFadMDjhAMhk4qH68iDwv0tyNROQDmV3+oIi8L9LGizqX3Xtl9uPV/QQpugeODi6xU43es/M7Pz2z1xNF5FmRNp4iIg/N7MerO0CK7oEfCiYjU40+VUR+PbNXjTIScAASp0wO+BUrk4Gj6v/RmYV8z0STXI14qP9nYrdXCg5YN4nUv0X3SP+7xD682oADDpCy2wE7LOyxpui1InLXxG6fKCInReoS2OHgxPa92ogDDpCyWwItOVegGD1QRE6NFRr9/edEBEVjjOj/AbFC/ncdBxwgOj5pSx0gIu9V+nP8soi8QNnwEzpHKJSMMfqyiGCH5ebuMU4p/+4AUTLKUOx3RORxyvLEuMLB6eMbyhNt8ekicmdle7SF05RTIQ44QAoxctAMykCcpm6ubPqrIvJP4YdJO9a+BJbrfzzMNYQ/OgIAThGnQhxwgBRi5KiZI7qrzhvqNL2x1Z/s/EXOmrnP1XfnAKm3xBqjwlK9u3l7KU6O2nGAVGJsaBZp0jPqduGB42ry1wFSk7v72kYv8uQuju73VejKT44KTB026QCpzODQPGF8kGzlOkv1o+VBjrTK3xyV188BUpnBo+YJJnfvTspFzN4U+lCIEo/HoEurUjhorOMAMTKsUPGfCQ5NxL2K2VX9m4gQBeVvROTPO1OT/y00Bm9GwQEHiIJJlYv8SBcf690b+rh9MDr8n8pj8OY3cMABsoytcfEEQMhR6LQlDjhAtsT4UbcOkGWsw36jcIAsY2EcIMtYBwfIQtfBAbLQhfETZBkL4wBZxjr4CbLQdXCALHRh/ATZ3sKQzgD/dX5vn5BifT7kRCddgtPMHHCA1Gc40U5QBt40/Ev0dxLkxKLAj0f2JREBJJ8NcbHQnfS/+rPY0R4cIOUXnijvR4YsU4DiW8t3sV+LAOWNIkLI0bfO0N/OdOEAyV/qK3TegER2JxUzrrHfm99kVgucMj1QcNr6RFZrO17ZAZK+AQ4Jpux366IlkhN9iYRBI6GI/kJEXCOfsEIOEDvTCAoNKPDzmOP6ZB/h3jUwdgQszy/V4C604wDRrzLRCgkbCjhaJt4of6pI9tPyHIuN3QESZ+V1AjByY+rGe5q3BNmwAIo/6if47gCZ3pS/KSIPD2LZebfvfL0BErwd0bc4jTjgANl7SyCmJZLh4TuyY/4lgITHvNOAAw6QS2+Ha4bg0Lsa25YEQL8/Eelx58DjALlkyfETJxToDba0C0iJ8MnQ9zUSNO2lhn1BlybuYYpkQKX6W3Q7DpB9y6ONnJ6zmOQOIWfHpwIQ+Hf43xeNGv+2ECoIsBAyiF//34Q1ra2QJMbw43MmvIa6DhCRmhEQ3xNC87xGRM4rvGEwY0Enw4+I7jXoJeE0Adw7SbsOkHM6DTO2U6WI4Aq0+WYRIdNsbsJO7biuG0xdMHchRu93aCsqyhFYm1QNRFbZOdplgJQExz+HEKOvCta229xIWAlzZSRJDxlxSxDpGYgcz/tkp2hXAVIKHBgCkr+D+LtLC83z7QEkDxIRpHO5hBEkESK/kNtQS/V3ESAlwPHfARSAA/+MJRMOWYCEE+UqmQP9uoggPNgZ2jWAvD5ENExd4G8OTowPpzaypXpkqwIkgCXHyHKnkoTuEkCwYr1PxuZ8SxcPl/zjrT9WieRIos8fy+AFUjnCp66edgUgvysij81YzT/r3F1/bYHvjNQpfWfnw3J6EBGntvHHQQScWr+JersAkOPCZkhdkDUrzMiyS7T5VMIs5VGplVuot3aAYDZydkbyGpyi/rKFhcwY4xOD/VlqE78oIi9Lrbz0emsHyBlBJ5CyDqQmIFHN3HTtLn86P9Ie8JuDjhGRVyZ29JGgI1ml7/uaAYIfB6nPUuigzkkKUW4tulwwD0H5dq0AiB4Y4z57oPAvCjtSTGO28n+FB3dwsA1LafbFInKPlIpLr7NWgGCZy9Xq8gkLgFHgvyfUm6pC7nSkRrjt3jqEBEoZW98H+gjMWd7WhRh6VzCCLJFxCj1JqiIQIQZ6oVXRWgFC2BtskqxE+B7MRUrRAUH69eDOlJ4vdC0C0E8VEVKz5WagwlL47xMG+rlwKn4soe5iq6wRIPcKqcqsTH9S8CK01ttU/r4BHERWnIswLAQkz83skId3inch7rsPyex7UdXXBhCuLe8UEZRhFiL3X44ScdgXpxDXjZJWwpa5UJYYWAAl9eFNG78tIqdYOw6nCNe+VdDaAJLyMMf85KcLrSabElOOpdCzOluxX80YDC64xxvrE3vr7sY6iy2+JoBcPTxWeWRrCQ+/I7prwRe1FTaUu14X+eTUEHo0s6ni1d8RRN0pTk9YBOPXclvjqI4SkTONdRZZfE0AsXoGYniIZCnXtgphAF9qxLVLpa928zw6OHNZx8h1lQ+JxcDxdaE/a1+LK78WgHB6oNSz+GmXeFDy1kB6lEoEajgrgHTsoz70Qee/2aicdta0CcOxcf3Dd8VKfxKC51nqreIUWQtArKcHSkB0Ejkm67xb+FJaiROLawuxcs+1Vg6xunCtvUuCMILuUOih2LMQpvI8vC3+JKs4RdYAkJTTg0iCWPjm0Gu7BDZ8JbX0wfBO4QvO9S6XuPLg30EML2uookNF5F+NA8Aw8WRjneZPkTUAhJi5XAG0hM0Qb48cT0CLWQZKPB7wAIMsUaXpwAFQtMpItOUIFizCCTwTeYtY3HeJioI1dbO0BoBwVfkJwwo8IsNGq+/maiFvYKxb9BEndmLPD8UKFvj7DUXkhSKCkaWGsFLGWtlCxCr+A0MFzF843VIkaIZu6hVtHSBoqc83sIfoI7w9SgRY4B1BDN9NhD4AcHzFML4SRbHRur2yIavTE2Jf3iKWaCm/UkCzr5xO+WKtA8Sq7UVphki2BE090v8oRIUv0U9KG3hAEstKQ4QIsmjc7x9cdjVtU6Zp99zWAYIS7FbKlSJsDdKYkmbsZK999MA/G8nNsxeiJMO2jOtkjLgGak8c2vquThKGDwhuuxpCIME1q8mYWi0DBKZbIheWtLcab4z+cVzaTF6zAafKYLR4gqIR6zUIQ0YMGrWE4SZmK81RywCx+pr/goi8vLkVyh8wJh/E750irICJ76s1lef6xjVOS4ADkDRHLQPkKQbT6q+FLFElHuetLTIZeLlGxUTAJxkkVFcMYnIe7RoiQY/lYa9pc5YyLQOEyOm8ATSE+DMneoemjyWX0QgzuB7e2PBG42GPL7uWAChB55qiVgGCzziPbi0R5Axpyq4SykTEszGN+7Hdl55AFxrCZOVFmoKhjKVtQ7N1i7YKEPQP6CE09A0RuUIh8w5Nf0stg9svBppTdFqn1EOMq6HLdh6YFxqsfFEwco1riloFiMWKlphNFolLUwtoGCy2W5iKTHlbIr5FFK4lhB4/ryzMlQydS1PUKkAwMQckGiphWqLpp4UyGt0Imaveq5yMxfQESdkPK9tdTLFWARIz8xgyGJEkITad9kV6IeLLFP1WdyUl2qKG8OMnKLiGECFrpV6a9mYp0ypA8ONAfKkhdADa94qmvdbLfD5owzfNw6JZxycFn34t1Yg5pu07qVyrALnYMFtM21PiPBm6aKooRpRTVrwWnQWWw7xrtIRJCwBshloECEoqi4XsdWaMcdvCwv+GiGDFu4lwA76qciKES7UEisPA03LiKIdRr1iLAMFxx+JfAKDQpDvt4wD6iFg0du2+IJsuASG01Fy0fC0jtAyYoxyecIgjNQQwAIjTJRzA+hkr6CniBOEk0RAA0aadbs5osUWAWJykiIjOFcvpEg7wUP5khCEWn3WuWFy1NIR7dE4UGE0fRcu0CJDDROTtSi7wOM/JxafsprliMSGH5THNI13r5ttctq4WAYJZNvF3NeQA2Z9LpU8QC0CaU9q2CJAbGULW+BVrf4CUfoNYrljNKW1bBAjRE7Wee/5I3x8gJaVYtG55pDentG0RIFbRoot5Lw2SknoQ61o0p7RtESAsN/n5MLfWkCsKL80lfDim8glaNOlWRWFza9EqQGL2RMMt0dxXS4P6jDKkSpsKgG2xxbKamjR3mrcKEELIXFe5SZq79yrnlVLs8C7Ez1siFR8WMUUZVrcYKzb5HmwVIERIx29BQ6mSE8wxCPDMj4iM1mDPmrHNXUYTgNqiJLSYuzcpUWwVIOcYcgCmyt7HKRWIwdUDhnCnmGu0FIRA41HI/ACIliwOU03qpFoFCKkLHqtcxVSXW+JoEeB5ivBLYVMRYQXtPqBZamghjU+6NVavxeUW4QAZiJuiVgFyaxF5q5LTqUEbDuksX5HoWOmjIdtVDxgyX22btFFN7tr5rJP3REPWoA0l4yJrxlekTKsAuVxQUJH2WUOpYX/e3+ULJ61ALnFde0xuIxn1tXGxCO6mzRliDfuDPzp+6U1RqwCByfhW42OtodTAca/oFpW85zm0bXAA8LMLR1aEH5bAcYiW8eNpjloGiOar2C9IauhRjdRnatE5NQDINkljTGiNzWsNPcq1jetbc9QyQO4YvoxapqcErybmU2rA6yWAQ5tMxxrd3Rq8ujkz935TtQwQvmIYLV5ZiZCU9AcWw8jhMJYADm0SHYvmvJ+jNf0BKfLepFynRRVrGSAwkgAAaHM1lJpAh/yClmiDjGXbGaY0AeJ6nlkzTFkT6PDo50OjTa2gWcvZyrQOkOONiVlSRI2vTrw/k4uc5DUXzbaa+zrSJs2hLOno4ImFrCnY+IgRzaRJah0gpAFDV8EXSkMpSTxJsZb60OZawQZEoVibCKRHOuxYspx+HCg1f9w4qJQknnfrROVcyZqk1gEC0y1xeilvNT3h/kyq6VRaYp50nJy4NlrCJzF/i2kJ5bEwmAqWncrT2eqtASC3ExFss7T0iRDI4bPKCnw1S8TV+mAXkO3UztT8GYVSMWBb9UAReYAi78d4qncw8oz66DEQGV9TyTeKWSyDDc3OV3QNAIFbmJ1gfqKlx3WbFHsuLVnM62NtYomM4g5QvyFWeI+/oxwl6ggnW8rX+UEBpNaurTohPkBoz7UfIut4Zim/FoA8RETIWaglUkHfwvA2wGgRPcqQEOXSDolhtCYv4/EhWeP6xpf5U+FHzCr+m+gj1wj/8t84ft0pEng6Nn/MQxAeWInrGBmqrmKoaDV8NDQ9X9G1AISNhFWtJYoi2ZYAlobGlrBDPQcaYkByfU1DWyrzhU4PcZsMnxYe/wR9sxCnG2+QpmktAGERnh7u5NoFIcE9X2WuPDG6+SBC/F5KQEIRcYIdEWtoC3/n9EM0qzVCHA+Rjc4Jx5tHS0itkF41T2sCCAEB3mYQ+bJ4LDybWrN5iEY4pSH/lpADkDv+Uij3moOAgtwqtzVOqLko7pvmtyaAMMeHBi22ZT21iix0IRp9CNa/pIdDurYtwnzkacHiNmcMzxMRlLEWQlGJbdcqaG0AwS6LDW+RaLGQKXZasQ1AJHOAQrDtuQirXIDBJs0li7V03xcidKRrcyhGc+enqr82gDDpuydKarBfeqSKa/pCBwSQ8Mg/WF/NXBJlJApTwFHC5omswCna7+b1HmPOrxEgzBFRJkCxEtejV1krKcojHsU8n68r/2rzK041TY4UTFnQqfAvIucSNBRIWNrTXlUtbW697FoBwsP7DKPYt1+MORJN3iR4QzJOgriRsGYqmBvJbPDK49+zgoJRm6rZsskAMiJhK5ESDz1RiuLT2tes5dcKkJuFNGPa4HJjph9U8ItsWVBA0gOmB4Q205Oln73KcgVEQZlCpI0mffTqaI0Awb/hJRna7X6RCau5hIgkc2y6YzIkXlgFc3poI+7PMZ9ifawNIDwS/7AYd/alS47FxirY3Vaa4ut/UmbPGGFiOLk6WhNArJp07WI260+tmOALujTO91aU0xR5XSfePc6YolvT7lbLrAEgaHu5UtWMmoF/NzqNpUZNtG4iHM1ONzhXadtHcID0kHhiq6DWAUL0QzYvlrlThEYYX2oCyKUSUdHR1Gtst1L7mKMetlXPrJjcFAtl7LBynMzm4IOqj5YBgmspd9+YAw8xfHGbhRBD5hgUYuDIVQ6np9a0xZis807AVsxieDjeSO8TkRsrdldqVH1F0/MVmRMgKMn4iiNC5YeXXi/KfLdR/n5i0BxP+WGwmfG2e/aInecG0+8cLqOUAySAZekOQXgCAgrAYfHn2Is/54kIGx9lJ9bLhICdIpzScE5LISykrxfGzLjZM5xO6Gn4IT37UkrDljq1AYJrJ5IgfleKDIwJswAo+KbSPGuCKHw8bAi0u3sRofjRGOcStkf9ibK09wlvs/7EiJ2yGj4QhI4Hfa8r4bqKtTBW1FPEB4q8iBr+oDDt9wvZeGOEkIEQqAgIqlAtgGDufD8ROSpx1EQzJJ7umYP6mJNzpeL0mCKiqvPFjGma0UjfOXF842pES+FEYdx85bZJfG2xpQIcBKMuQWxAwDE2Z+Ejw0kSMw4ljjIOV5uupVcP64oVsDZCzXBe3EAA4vi2kD330gDBhII7fyowxhM6JXjrIXXBGC8mqUJnATjIYaihEjqAYT/4lQA8foCF6CFzEKcFbzJ+fJy4ypYiJIRcq76+oUH64uMAKKeIjwhGm+MAG7gQpAJj3B9AwVOUXCRFqCRA8H8gSHHsKmUdOJsNgMQkVanRDIlbxclUmrhSMHauAFjGkqekJPHQBgwYWGI9QErm0vT4LqMweiANoaBFUTtFvBkQl7OBeVOwmacy7mr63auMxZ16so9SAOE45y6+LeKOi990KpH5CJ+QWoTAACthPBiHhof8N79NYYXY9L191tCokasNwNCmwrbOizTbrOlzjBW1wTPwNeF6W9OpjGudNiztxmmWAMg4l5+Rp1nF+UpzN+Zhn0tc35C6YOg4NwGQHiz03YOixqkQmxvvBMCRqseAj1y5avq/xObQ/z3biDIXIByXvA22QQSVBhxIvkoRUVEACdEXd5F45HKtQgqYQ+hJ8GokKMa2CZfh56cOIgcgfGm3Ze06Fjmmzn9TPY5/gBKTzpTud1vt8bgFGLyXShEfGzYmOVa2TcQgRo1gphyAnBZEudpOyZPNjySXXCfw1eh/VgVWzri140Ws/KgQfBr5/FoJYCAt1OgpUnhAzDBi+qbQhWHPsG/woOQtN9w3uDRrCOAjyDBT6kaznB58nbBhQoO9iayWuA9PiF5iZk6ocK2gkUcrbwlMl9rfXPUQ33I9JmJibbKmTGA8CAgA7qbrHlr2J4sIviwawtKYOZsoFSAohzRRCbnTxhR7/YCPDV6Amgl8JlGhpGl7UxlMHwAJP06XVumNARibrAxqzevLBhWAxY4LHYpGQciH4JbWyaUCBKXPoZHO0AFos9D2TfX2Npp5cLclC+3cxOmJtSpedIQ8bYUQMaPvqSnOnvq4EBpWQ0jQrHop7M00qRzMqahTAIK2PBZz9WPhrqhhyLgMtjgvVVTEDKWUxl7R3X5FiMGF9pgfxntLJAwpuX+jg0kV25aYF8pGjdFiTjZcTdBAPCd5E6kpBSAavQcmD4SsTCVNAkqioJcwwksd47AeoTkx3iNA9Db0KMOxYN7Ce68HRkqUkhI8GbaBeUlMKYgZPR+a1CAVWBYj8p9KCWFOWJoCEI5oNM+biEd5rqXsPYOxYmyhOFoxmV8SXTtsBkDDpuD/axMiTN4WbBAsobnvL4l4aMc+Zljm8vbIIRzBEAhsovNFhBuQmlIAEktWY3mYbxroDTqz5w8oZnF4SJ6jKLq1ImjFea/h/Tj8dyoO1qbBIubk/cePLy7/sh5LA8Rw/JjDYLoSo5OD1CpWburvCIRITLqJcE9AKqmmFIAQ3mXKJJlBaqQKsUHy6OKEmCLi3+JO2yJtsrPiqoBOAvMTfv1/w3ftQ3dJ/CBvCunnYoQvu+btOdUO5v18ODYRAe54O6opBSAs2JSChofz0I9DPZhRQXy/bxqpbH50pQ7G6yVzACtsjTnQkQUiMx4YSWXBSWbKBpYCEO5xUxHLp3JoaLmsTZyJdrSkeYR2fF5OzwGt6D5FvDseBda7U/odpHpX0w9dJAUg6B4wtd5EeJ8dbRnEHmXJxcejM0ZmuXasQf97FQ7gZQlQpig32Q9txySshCPiLaimFICQJmDK2vXTBUydMSXBjCBGnDQlwv3H+vG/53GAK1bM4a3Eh5XbxJTpCe7YJgPUFIBo8pLjXZZqoIb3IEEVYikCkkwH8tbZaydyIPZl75tFfZDqLquxD0RJaAqzmgIQJoPuISam5IuBeYOVMKDDzyRGJd46sT7872U4gA3UVKSavhfzG2EwPLTwMcsK8sujLFRTKkCw879PpJeUySLJ0GrgYfoclqhqZnrBSQ5w/7+hgkdEs7HGC8Y3Pxb6B3N5gueZKBUgmgExEOTOPNhjqEU8x9Ea+wL0kytxXzUxygtnc0B7zaIjMmahEWdTTxEPbtx7Y2YstEF6Pd7PJkoFCJ1ojrR+MLhfYh/ElatXGqFLIQcHZilEw7DEQyqlazExywtncYDYV3igWtaZazRqBR75uDhAOK+xb/j1IWVjA+NNe1hKZJkcgGhPkfHguXoRnS/VqM9Pj9h2WO7fLafIeBYXBI9CNPNWwuL6ZdZKlM8BCPWtbrcpYxzW4cqG/VUsamJuP16/DgfQYnOTiIl8S/aeFSMrFyBMhGMz9TSwMsIshbB24OWrcwCrXk6DWjG9hhOgn5i6YHLCJQBCBxdXZ+u+kKI8yJza54DWPit3poARv6FkKgUQBoCpABEOa5CDowZXt9smZueYE6W8KWIjx1UClQHRULKoJEAYyAki8gSFElE7aFx7Cb1TwjpY26eXm48DxHHGe7Rk7CwUzUSSL0KlAcKgUMYgttVGM9lrIkRJx1yFgNTERnJaNwdQDLJnNJmrNnECBTP7haCCxagGQPrBEZ0Q2xqOupglZ1+HEwOlIjGRVpMIsthqrbshYo5hpIpfusWg8NXhhlHFca4mQIbLCUgI/9inXyOnBFa4fUotoqAQJqi1vH/r3rLbmx1KRVL24SHY7xn+7dOv8S/SUyK1cNuoRnMBpNoEvGHnQE0OOEBqctfbbp4DDpDml9AnUJMDDpCa3PW2m+eAA6T5JfQJ1OSAA6Qmd73t5jngAGl+CX0CNTngAKnJXW+7eQ44QJpfQp9ATQ44QGpy19tungMOkOaX0CdQkwMOkJrc9bab54ADpPkl9AnU5IADpCZ3ve3mOfD/eILaBRXwU8wAAAAASUVORK5CYII=;" vertex="1" parent="1">
          <mxGeometry x="340" y="380" width="50" height="50" as="geometry" />
        </mxCell>
        <mxCell id="EB9Ou6GKdFQ_Ul-n4hss-21" value="前端触发调度任务" style="text;html=1;strokeColor=none;fillColor=none;align=center;verticalAlign=middle;whiteSpace=wrap;rounded=0;" vertex="1" parent="1">
          <mxGeometry x="400" y="390" width="60" height="30" as="geometry" />
        </mxCell>
        <mxCell id="EB9Ou6GKdFQ_Ul-n4hss-26" value="" style="edgeStyle=segmentEdgeStyle;endArrow=classic;html=1;curved=0;rounded=0;endSize=8;startSize=8;fontColor=#808080;" edge="1" parent="1">
          <mxGeometry width="50" height="50" relative="1" as="geometry">
            <mxPoint x="365" y="700" as="sourcePoint" />
            <mxPoint x="315" y="670" as="targetPoint" />
            <Array as="points">
              <mxPoint x="365" y="720" />
              <mxPoint x="290" y="720" />
              <mxPoint x="290" y="670" />
            </Array>
          </mxGeometry>
        </mxCell>
        <mxCell id="EB9Ou6GKdFQ_Ul-n4hss-27" value="根据编排场景，按业务日期执行测试任务" style="text;html=1;strokeColor=none;fillColor=none;align=center;verticalAlign=middle;whiteSpace=wrap;rounded=0;" vertex="1" parent="1">
          <mxGeometry x="180" y="680" width="90" height="30" as="geometry" />
        </mxCell>
      </root>
    </mxGraphModel>
  </diagram>
</mxfile>
